<?xml version="1.0" encoding="UTF-8"?>
<svg width="118px" height="94px" viewBox="0 0 118 94" version="1.1" xmlns="http://www.w3.org/2000/svg" xmlns:xlink="http://www.w3.org/1999/xlink">
    <title>5D5F2F74-1C5E-474C-90E0-8AEE03D8F5BD</title>
    <g id="Page-1" stroke="none" stroke-width="1" fill="none" fill-rule="evenodd">
        <g id="Desktop-HD" transform="translate(-805.000000, -337.000000)" fill-rule="nonzero">
            <g id="bootstrap.3a162f65200426203695ee878e6b62fb" transform="translate(805.000000, 337.000000)">
                <path d="M13.0171055,12.2845098 C12.7944727,5.89343137 17.7755937,0 24.5085078,0 L93.5000195,0 C100.232934,0 105.214055,5.89343137 104.991422,12.2845098 C104.777547,18.4237696 105.055262,26.3764461 107.057344,32.8608333 C109.065879,39.3652647 112.452848,43.4766127 118,44.004902 L118,49.995098 C112.452848,50.5233873 109.065879,54.6347353 107.057344,61.1391667 C105.055262,67.6235539 104.777547,75.5762304 104.991422,81.7157206 C105.214055,88.1065686 100.232934,94 93.5000195,94 L24.5085078,94 C17.7755937,94 12.7944727,88.1065686 13.0173359,81.7157206 C13.2309805,75.5762304 12.9532656,67.6235539 10.9509531,61.1391667 C8.94264844,54.6347353 5.54738281,50.5233873 0,49.995098 L0,44.004902 C5.54715234,43.4766127 8.94264844,39.3652647 10.9509531,32.8608333 C12.9532656,26.3764461 13.2309805,18.4237696 13.0171055,12.2845098 Z" id="Path" fill="#FFFFFF"></path>
                <path d="M61.5588945,71.9876422 C72.459375,71.9876422 79.0279648,66.6522206 79.0279648,57.8519314 C79.0279648,51.1998186 74.3411523,46.3839314 67.381918,45.6215637 L67.381918,45.344402 C72.4948672,44.5129167 76.5070977,39.7663775 76.5070977,34.4655147 C76.5070977,26.9125686 70.5421055,21.9925441 61.452418,21.9925441 L41.0006211,21.9925441 L41.0006211,71.9876422 L61.5588945,71.9876422 Z M48.9540977,28.3329363 L59.5351484,28.3329363 C65.2871875,28.3329363 68.5536211,30.8967402 68.5536211,35.5393725 C68.5536211,40.4939559 64.7545742,43.2655735 57.8663242,43.2655735 L48.9540977,43.2655735 L48.9540977,28.3329363 L48.9540977,28.3329363 Z M48.9540977,65.6474804 L48.9540977,49.1903382 L59.4639336,49.1903382 C66.9912734,49.1903382 70.8970273,51.9619559 70.8970273,57.3669559 C70.8970273,62.7717255 67.0979805,65.6474804 59.9255625,65.6474804 L48.9540977,65.6474804 L48.9540977,65.6474804 Z" id="Shape" stroke="#FFFFFF" stroke-width="0.5" fill="#212529"></path>
            </g>
        </g>
    </g>
</svg>