<svg width="94" height="75" viewBox="0 0 94 75" fill="none" xmlns="http://www.w3.org/2000/svg">
<g id="bootstrap.3a162f65200426203695ee878e6b62fb" opacity="0.2">
<path id="Path" d="M10.3696 9.80147C10.1922 4.70221 14.1602 0 19.5237 0H74.4831C79.8466 0 83.8146 4.70221 83.6372 9.80147C83.4669 14.6998 83.6881 21.045 85.283 26.2188C86.883 31.4085 89.5811 34.6888 94 35.1103V39.8897C89.5811 40.3112 86.883 43.5915 85.283 48.7812C83.6881 53.955 83.4669 60.3002 83.6372 65.1987C83.8146 70.2978 79.8466 75 74.4831 75H19.5237C14.1602 75 10.1922 70.2978 10.3697 65.1987C10.5399 60.3002 10.3187 53.955 8.72364 48.7812C7.1238 43.5915 4.4191 40.3112 0 39.8897V35.1103C4.41892 34.6888 7.1238 31.4085 8.72364 26.2188C10.3187 21.045 10.5399 14.6998 10.3696 9.80147Z" fill="white"/>
<g id="Shape">
<path fill-rule="evenodd" clip-rule="evenodd" d="M49.0384 57.4369C57.7219 57.4369 62.9545 53.18 62.9545 46.1585C62.9545 40.8509 59.2209 37.0085 53.6771 36.4002V36.179C57.7501 35.5156 60.9463 31.7285 60.9463 27.4991C60.9463 21.4728 56.1945 17.5472 48.9536 17.5472H32.6615V57.4369H49.0384ZM38.9973 22.6061H47.4263C52.0084 22.6061 54.6105 24.6517 54.6105 28.3559C54.6105 32.309 51.5841 34.5204 46.0969 34.5204H38.9973V22.6061ZM38.9973 39.2476V52.3783H47.7373C53.4509 52.3783 56.4773 50.0838 56.4773 45.7715C56.4773 41.459 53.3659 39.2476 47.3696 39.2476H38.9973Z" fill="#212529"/>
<path d="M53.6771 36.4002H53.4271V36.6243L53.6498 36.6487L53.6771 36.4002ZM53.6771 36.179L53.6369 35.9323L53.4271 35.9665V36.179H53.6771ZM32.6615 17.5472V17.2972H32.4115V17.5472H32.6615ZM32.6615 57.4369H32.4115V57.6869H32.6615V57.4369ZM38.9973 22.6061V22.3561H38.7473V22.6061H38.9973ZM38.9973 34.5204H38.7473V34.7704H38.9973V34.5204ZM38.9973 52.3783H38.7473V52.6283H38.9973V52.3783ZM38.9973 39.2476V38.9976H38.7473V39.2476H38.9973ZM62.7045 46.1585C62.7045 49.6015 61.4246 52.3468 59.0952 54.2366C56.7594 56.1317 53.3425 57.1869 49.0384 57.1869V57.6869C53.4178 57.6869 56.9589 56.6137 59.4102 54.6249C61.868 52.6309 63.2045 49.7369 63.2045 46.1585H62.7045ZM53.6498 36.6487C59.0816 37.2447 62.7045 40.9927 62.7045 46.1585H63.2045C63.2045 40.7091 59.3602 36.7722 53.7044 36.1517L53.6498 36.6487ZM53.4271 36.179V36.4002H53.9271V36.179H53.4271ZM60.6963 27.4991C60.6963 31.6087 57.5863 35.289 53.6369 35.9323L53.7173 36.4258C57.914 35.7422 61.1963 31.8483 61.1963 27.4991H60.6963ZM48.9536 17.7972C52.5308 17.7972 55.4679 18.7669 57.5058 20.4558C59.5391 22.141 60.6963 24.5572 60.6963 27.4991H61.1963C61.1963 24.4147 59.9776 21.855 57.8248 20.0708C55.6766 18.2904 52.6173 17.2972 48.9536 17.2972V17.7972ZM32.6615 17.7972H48.9536V17.2972H32.6615V17.7972ZM32.9115 57.4369V17.5472H32.4115V57.4369H32.9115ZM49.0384 57.1869H32.6615V57.6869H49.0384V57.1869ZM47.4263 22.3561H38.9973V22.8561H47.4263V22.3561ZM54.8605 28.3559C54.8605 26.44 54.1843 24.9254 52.8925 23.8963C51.6092 22.8742 49.75 22.3561 47.4263 22.3561V22.8561C49.6847 22.8561 51.4176 23.3607 52.5809 24.2874C53.7356 25.2072 54.3605 26.5676 54.3605 28.3559H54.8605ZM46.0969 34.7704C48.8685 34.7704 51.0567 34.2128 52.5583 33.1229C54.0717 32.0244 54.8605 30.4046 54.8605 28.3559H54.3605C54.3605 30.2603 53.6361 31.7227 52.2646 32.7182C50.8812 33.7223 48.8125 34.2704 46.0969 34.2704V34.7704ZM38.9973 34.7704H46.0969V34.2704H38.9973V34.7704ZM38.7473 22.6061V34.5204H39.2473V22.6061H38.7473ZM39.2473 52.3783V39.2476H38.7473V52.3783H39.2473ZM47.7373 52.1283H38.9973V52.6283H47.7373V52.1283ZM56.2273 45.7715C56.2273 47.863 55.4973 49.4349 54.0991 50.4926C52.6892 51.5592 50.5667 52.1283 47.7373 52.1283V52.6283C50.6216 52.6283 52.869 52.0501 54.4007 50.8914C55.9441 49.7238 56.7273 47.9924 56.7273 45.7715H56.2273ZM47.3696 39.4976C50.344 39.4976 52.5601 40.0473 54.0267 41.0957C55.4787 42.1338 56.2273 43.6833 56.2273 45.7715H56.7273C56.7273 43.5472 55.9202 41.8348 54.3174 40.689C52.7293 39.5536 50.3915 38.9976 47.3696 38.9976V39.4976ZM38.9973 39.4976H47.3696V38.9976H38.9973V39.4976Z" fill="white"/>
</g>
</g>
</svg>
