<?xml version="1.0" encoding="UTF-8"?>
<svg width="73px" height="102px" viewBox="0 0 73 102" version="1.1" xmlns="http://www.w3.org/2000/svg" xmlns:xlink="http://www.w3.org/1999/xlink">
    <title>1161A113-D44A-4EDC-A6CB-16FB9C4828B9</title>
    <g id="Page-1" stroke="none" stroke-width="1" fill="none" fill-rule="evenodd">
        <g id="Desktop-HD" transform="translate(-449.000000, -325.000000)" fill-rule="nonzero">
            <g id="CSS3_logo_and_wordmark" transform="translate(449.000000, 325.000000)">
                <polygon id="polygon2989" fill="#FFFFFF" points="73 20.0453906 66.3495123 93.7959727 36.4553226 102 6.64344396 93.8075273 0 20.0453906"></polygon>
                <polygon id="polygon2991" fill="#FFFFFF" points="60.6559655 89.0997891 66.3392486 26.0765391 36.5 26.0765391 36.5 95.7291914"></polygon>
                <polygon id="polygon2993" fill="#212529" points="15.2299509 53.4338555 16.0490359 62.4803789 36.5 62.4803789 36.5 53.4338555"></polygon>
                <polygon id="polygon2995" fill="#212529" points="36.5 35.1232617 36.4684038 35.1232617 13.5841333 35.1232617 14.4148908 44.1699844 36.5 44.1699844"></polygon>
                <polygon id="polygon2997" fill="#212529" points="36.5 86.341207 36.5 76.928918 36.4599514 76.9394766 26.2819642 74.2189453 25.6313249 67.0038398 20.6856209 67.0038398 16.457371 67.0038398 17.7377197 81.2083359 36.4579389 86.3527617"></polygon>
                <polygon id="path2999" fill="#FFFFFF" points="17.1800576 0 28.2487746 0 28.2487746 4.58203125 21.8087938 4.58203125 21.8087938 9.1640625 28.2487746 9.1640625 28.2487746 13.7460938 17.1800576 13.7460938"></polygon>
                <polygon id="path3001" fill="#FFFFFF" points="30.462518 0 41.531235 0 41.531235 3.984375 35.0912542 3.984375 35.0912542 4.78125 41.531235 4.78125 41.531235 13.9453125 30.462518 13.9453125 30.462518 9.76171875 36.9024988 9.76171875 36.9024988 8.96484375 30.462518 8.96484375"></polygon>
                <polygon id="path3003" fill="#FFFFFF" points="43.7449784 0 54.8136954 0 54.8136954 3.984375 48.3737146 3.984375 48.3737146 4.78125 54.8136954 4.78125 54.8136954 13.9453125 43.7449784 13.9453125 43.7449784 9.76171875 50.1849592 9.76171875 50.1849592 8.96484375 43.7449784 8.96484375"></polygon>
                <polygon id="polygon3005" fill="#212529" points="47.7218678 62.4803789 46.6610822 74.213168 36.4684038 76.9364883 36.4684038 86.3483789 55.2035155 81.2083359 55.3409689 79.6799297 57.4885012 55.8631289 57.7114856 53.4338555 59.3613281 35.1232617 36.4684038 35.1232617 36.4684038 44.1699844 49.3459505 44.1699844 48.514388 53.4338555 36.4684038 53.4338555 36.4684038 62.4803789"></polygon>
            </g>
        </g>
    </g>
</svg>