<svg width="58" height="82" viewBox="0 0 58 82" fill="none" xmlns="http://www.w3.org/2000/svg">
<g id="CSS3_logo_and_wordmark" opacity="0.2">
<path id="polygon2989" d="M58 16.1149L52.716 75.4046L28.9645 82L5.27835 75.4139L0 16.1149H58Z" fill="white"/>
<path id="polygon2991" d="M48.1924 71.6292L52.7079 20.9635H29V76.9588L48.1924 71.6292Z" fill="white"/>
<path id="polygon2993" d="M12.1006 42.9566L12.7514 50.2293H29.0001V42.9566H12.1006Z" fill="#212529"/>
<path id="polygon2995" d="M29.0001 28.2364H28.975H10.793L11.453 35.5092H29.0001V28.2364Z" fill="#212529"/>
<path id="polygon2997" d="M29 69.4116V61.8448L28.9681 61.8533L20.8815 59.6662L20.3646 53.8658H16.4351H13.0757L14.0929 65.2851L28.9665 69.4209L29 69.4116Z" fill="#212529"/>
<path id="path2999" d="M13.6499 0H22.4442V3.68359H17.3275V7.36719H22.4442V11.0508H13.6499V0Z" fill="white"/>
<path id="path3001" d="M24.2031 0H32.9974V3.20312H27.8808V3.84375H32.9974V11.2109H24.2031V7.84766H29.3198V7.20703H24.2031V0Z" fill="white"/>
<path id="path3003" d="M34.7563 0H43.5507V3.20312H38.434V3.84375H43.5507V11.2109H34.7563V7.84766H39.873V7.20703H34.7563V0Z" fill="white"/>
<path id="polygon3005" d="M37.916 50.2293L37.0731 59.6616L28.9749 61.8509V69.4173L43.8603 65.2851L43.9695 64.0564L45.6758 44.9096L45.8529 42.9566L47.1638 28.2364H28.9749V35.5092H39.2063L38.5456 42.9566H28.9749V50.2293H37.916Z" fill="#212529"/>
</g>
</svg>
