<svg width="73" height="73" viewBox="0 0 73 73" fill="none" xmlns="http://www.w3.org/2000/svg">
<g id="Git-logo" opacity="0.2">
<path id="Path" d="M71.6237 33.2486L39.7492 1.37678C37.9153 -0.458928 34.9383 -0.458928 33.102 1.37678L26.4837 7.99606L34.8788 16.3916C36.8305 15.7326 39.0675 16.1744 40.6225 17.7298C42.1856 19.2948 42.6242 21.551 41.9488 23.5093L50.0402 31.6011C51.9978 30.9265 54.2564 31.3624 55.8195 32.9283C58.0049 35.1131 58.0049 38.6534 55.8195 40.8388C53.6338 43.0249 50.0937 43.0249 47.9068 40.8388C46.2636 39.1942 45.8572 36.7797 46.6895 34.7551L39.1433 27.2086L39.1426 47.067C39.6754 47.3308 40.1782 47.6828 40.6222 48.1249C42.8069 50.3095 42.8069 53.8491 40.6222 56.0373C38.4368 58.2218 34.8951 58.2218 32.7121 56.0373C30.527 53.8493 30.527 50.3097 32.7121 48.1249C33.2521 47.5858 33.8769 47.1778 34.5436 46.9043V26.8613C33.8766 26.589 33.2525 26.184 32.7117 25.6406C31.0566 23.9868 30.658 21.5576 31.5068 19.5251L23.2308 11.2475L1.37716 33.1013C-0.459054 34.9384 -0.459054 37.9155 1.37716 39.7514L33.2497 71.6232C35.0847 73.4589 38.0606 73.4589 39.8981 71.6232L71.6233 39.9019C73.4589 38.0653 73.4589 35.0874 71.6233 33.2513" fill="white"/>
</g>
</svg>
