<?xml version="1.0" encoding="UTF-8"?>
<svg width="91px" height="91px" viewBox="0 0 91 91" version="1.1" xmlns="http://www.w3.org/2000/svg" xmlns:xlink="http://www.w3.org/1999/xlink">
    <title>7CE22BB5-0253-4E4A-B257-BFD2CE6596AB</title>
    <g id="Page-1" stroke="none" stroke-width="1" fill="none" fill-rule="evenodd">
        <g id="Desktop-HD" transform="translate(-481.000000, -473.000000)" fill="#FFFFFF" fill-rule="nonzero">
            <g id="Git-logo" transform="translate(481.000000, 473.072073)">
                <path d="M89.2698399,41.4140287 L49.5424007,1.71490594 C47.2565855,-0.571635314 43.5461889,-0.571635314 41.2574986,1.71490594 L33.0085345,9.95979953 L43.4720768,20.417166 C45.9045988,19.5963482 48.692747,20.1466888 50.6308423,22.0840233 C52.5790002,24.0334258 53.1257367,26.8437134 52.2838296,29.2829408 L62.3688251,39.361984 C64.8086945,38.5216913 67.6237563,39.0645772 69.5719941,41.0151131 C72.2957734,43.7364867 72.2957734,48.1461878 69.5719941,50.8682797 C66.8478154,53.5912496 62.4355101,53.5912496 59.709814,50.8682797 C57.6617485,48.8198268 57.1551827,45.8123961 58.1925125,43.2904803 L48.7871441,33.890663 L48.7863455,58.626142 C49.4503995,58.9546766 50.077078,59.3931645 50.630443,59.9438085 C53.3534237,62.6648628 53.3534237,67.0737658 50.630443,69.7993695 C47.9066636,72.5203441 43.4923618,72.5203441 40.7714574,69.7993695 C38.0480774,67.0740052 38.0480774,62.6651022 40.7714574,59.9438085 C41.4444959,59.2723644 42.2232719,58.7641422 43.0542379,58.4234916 L43.0542379,33.4581453 C42.2228726,33.1189314 41.445015,32.6145004 40.7709783,31.9376688 C38.7081383,29.8776427 38.2113157,26.8518545 39.2692499,24.3202013 L28.9542513,14.0096945 L1.71645777,41.2306137 C-0.572152591,43.5189109 -0.572152591,47.2271176 1.71645777,49.5138185 L41.4415011,89.2130211 C43.7285941,91.4995623 47.437713,91.4995623 49.7280004,89.2130211 L89.2693607,49.7013839 C91.5572523,47.4137252 91.5572523,43.7044011 89.2693607,41.4173809" id="Path"></path>
            </g>
        </g>
    </g>
</svg>