<?xml version="1.0" encoding="UTF-8"?>
<svg width="73px" height="102px" viewBox="0 0 73 102" version="1.1" xmlns="http://www.w3.org/2000/svg" xmlns:xlink="http://www.w3.org/1999/xlink">
    <title>253A85C7-91B2-4D07-97AF-50DAE2150F32</title>
    <g id="Page-1" stroke="none" stroke-width="1" fill="none" fill-rule="evenodd">
        <g id="Desktop-HD" transform="translate(-562.000000, -325.000000)" fill-rule="nonzero">
            <g id="HTML5_logo_and_wordmark" transform="translate(562.000000, 325.000000)">
                <path d="M6.80099228,0 L11.4288864,0 L11.4288864,4.5421875 L15.6945976,4.5421875 L15.6945976,0 L20.3224917,0 L20.3224917,13.7460938 L15.6945976,13.7460938 L15.6945976,9.1640625 L11.469129,9.1640625 L11.469129,13.7460938 L6.80099228,13.7460938 M26.4393605,4.58203125 L22.3547409,4.58203125 L22.3547409,0 L35.1719956,0 L35.1719956,4.58203125 L31.0672547,4.58203125 L31.0672547,13.7460938 L26.4393605,13.7460938 M37.2042448,0 L42.053473,0 L45.0314223,4.84101563 L48.0093716,0 L52.8585998,0 L52.8585998,13.7460938 L48.2307056,13.7460938 L48.2307056,6.9328125 L44.9911797,11.8734375 L41.7516538,6.9328125 L41.7516538,13.7460938 L37.2042448,13.7460938 M55.1524256,0 L59.7803197,0 L59.7803197,9.20390625 L66.3398567,9.20390625 L66.3398567,13.7460938 L55.1524256,13.7460938" id="Shape" fill="#FFFFFF"></path>
                <polyline id="Path" fill="#FFFFFF" points="6.64002205 93.8320312 0 20.0414062 73 20.0414062 66.3599779 93.7921875 36.4396362 102"></polyline>
                <polyline id="Path" fill="#FFFFFF" points="36.5 95.7246094 36.5 26.0976562 66.3398567 26.0976562 60.6455347 89.0507812"></polyline>
                <path d="M13.561742,35.1222656 L36.5,35.1222656 L36.5,44.1667969 L23.5821389,44.1667969 L24.4272326,53.4304688 L36.5,53.4304688 L36.5,62.4550781 L16.0567806,62.4550781 M16.4592062,66.9972656 L25.6345094,66.9972656 L26.2783903,74.2289062 L36.5,76.9382813 L36.5,86.38125 L17.746968,81.2015625" id="Shape" fill="#212529"></path>
                <path d="M59.3577729,35.1222656 L36.4597574,35.1222656 L36.4597574,44.1667969 L58.5126792,44.1667969 M57.6877067,53.4304687 L36.4597574,53.4304687 L36.4597574,62.475 L47.7276736,62.475 L46.6612459,74.2289062 L36.4597574,76.9382812 L36.4597574,86.3414062 L55.1725469,81.2015625" id="Shape" fill="#212529"></path>
            </g>
        </g>
    </g>
</svg>