<svg width="58" height="82" viewBox="0 0 58 82" fill="none" xmlns="http://www.w3.org/2000/svg">
<g opacity="0.198707">
<path fill-rule="evenodd" clip-rule="evenodd" d="M9.08052 0H5.40356V11.0508H9.11249V7.36719H12.4697V11.0508H16.1467V0H12.4697V3.65156H9.08052V0ZM17.7613 3.68359H21.0067V11.0508H24.6836V3.68359H27.9449V0H17.7613V3.68359ZM29.5596 0H33.4124L35.7784 3.8918L38.1445 0H41.9973V11.0508H38.3203V5.57344L35.7465 9.54531L33.1726 5.57344V11.0508H29.5596V0ZM47.4967 0H43.8198V11.0508H52.7084V7.39922H47.4967V0Z" fill="white"/>
<path d="M5.27563 75.4336L0 16.1117H58L52.7244 75.4016L28.952 82" fill="white"/>
<path d="M29 76.9551V20.9805H52.7084L48.1841 71.5898" fill="white"/>
<path fill-rule="evenodd" clip-rule="evenodd" d="M29.0001 28.2355H10.7751L12.7575 50.209H29.0001V42.9539H19.408L18.7366 35.5066H29.0001V28.2355ZM20.3672 53.8605H13.0772L14.1004 65.2797L29.0001 69.4437V61.8523L20.8788 59.6742L20.3672 53.8605Z" fill="#212529"/>
<path fill-rule="evenodd" clip-rule="evenodd" d="M28.968 28.2355H47.161L46.4895 35.5066H28.968V28.2355ZM28.968 42.9539H45.8341L43.8357 65.2797L28.968 69.4117V61.8523L37.0733 59.6742L37.9206 50.225H28.968V42.9539Z" fill="#212529"/>
</g>
</svg>
