<svg width="72" height="72" viewBox="0 0 72 72" fill="none" xmlns="http://www.w3.org/2000/svg">
<g id="js.acc4642f682cd93a4c20a8a02c0cfa21" opacity="0.2">
<rect id="Rectangle" width="72" height="72" fill="white"/>
<path id="Shape" fill-rule="evenodd" clip-rule="evenodd" d="M55.04 60.3589C51.7029 60.3589 49.816 58.6183 48.3658 56.2503L42.8675 59.4446C44.8538 63.3692 48.9132 66.3634 55.1966 66.3634C61.6229 66.3634 66.4081 63.0263 66.4081 56.9349C66.4081 51.2846 63.1623 48.7714 57.4138 46.3063L55.7223 45.5817C52.8195 44.3246 51.5623 43.5029 51.5623 41.4732C51.5623 39.8309 52.8183 38.5737 54.8 38.5737C56.7429 38.5737 57.9943 39.3932 59.1543 41.4732L64.4229 38.0903C62.1943 34.1703 59.1018 32.6732 54.8 32.6732C48.7578 32.6732 44.8915 36.536 44.8915 41.6103C44.8915 47.1189 48.1349 49.7246 53.0172 51.8046L54.7086 52.5303C57.7943 53.88 59.6343 54.7017 59.6343 57.0217C59.6343 58.9577 57.8435 60.3589 55.04 60.3589ZM28.8195 60.3166C26.4949 60.3166 25.528 58.7223 24.4652 56.8366L18.9578 60.1709C20.5532 63.5474 23.6903 66.3509 29.1075 66.3509C35.1029 66.3509 39.2103 63.1623 39.2103 56.1566V33.0594H32.4446V56.0652C32.4446 59.4469 31.0423 60.3166 28.8195 60.3166Z" fill="#212529"/>
</g>
</svg>
