<?xml version="1.0" encoding="UTF-8"?>
<svg width="90px" height="90px" viewBox="0 0 90 90" version="1.1" xmlns="http://www.w3.org/2000/svg" xmlns:xlink="http://www.w3.org/1999/xlink">
    <title>DDD5788B-A599-4FC3-A86C-A69476EAFC3B</title>
    <g id="Page-1" stroke="none" stroke-width="1" fill="none" fill-rule="evenodd">
        <g id="Desktop-HD" transform="translate(-675.000000, -337.000000)" fill-rule="nonzero">
            <g id="js.acc4642f682cd93a4c20a8a02c0cfa21" transform="translate(675.000000, 337.000000)">
                <rect id="Rectangle" fill="#FFFFFF" x="0" y="0" width="90" height="90"></rect>
                <path d="M60.4571429,70.3128571 C62.27,73.2728571 64.6285714,75.4485714 68.8,75.4485714 C72.3042857,75.4485714 74.5428571,73.6971429 74.5428571,71.2771429 C74.5428571,68.3771429 72.2428571,67.35 68.3857143,65.6628571 L66.2714286,64.7557143 C60.1685714,62.1557143 56.1142857,58.8985714 56.1142857,52.0128571 C56.1142857,45.67 60.9471429,40.8414286 68.5,40.8414286 C73.8771429,40.8414286 77.7428571,42.7128571 80.5285714,47.6128571 L73.9428571,51.8414286 C72.4928571,49.2414286 70.9285714,48.2171429 68.5,48.2171429 C66.0228571,48.2171429 64.4528571,49.7885714 64.4528571,51.8414286 C64.4528571,54.3785714 66.0242857,55.4057143 69.6528571,56.9771429 L71.7671429,57.8828571 C78.9528571,60.9642857 83.01,64.1057143 83.01,71.1685714 C83.01,78.7828571 77.0285714,82.9542857 68.9957143,82.9542857 C61.1414286,82.9542857 56.0671429,79.2114286 53.5842857,74.3057143 L60.4571429,70.3128571 Z M30.5814286,71.0457143 C31.91,73.4028571 33.1185714,75.3957143 36.0242857,75.3957143 C38.8028571,75.3957143 40.5557143,74.3085714 40.5557143,70.0814286 L40.5557143,41.3242857 L49.0128571,41.3242857 L49.0128571,70.1957143 C49.0128571,78.9528571 43.8785714,82.9385714 36.3842857,82.9385714 C29.6128571,82.9385714 25.6914286,79.4342857 23.6971429,75.2135714 L30.5814286,71.0457143 Z" id="Shape" fill="#212529"></path>
            </g>
        </g>
    </g>
</svg>