<svg width="62" height="73" viewBox="0 0 62 73" fill="none" xmlns="http://www.w3.org/2000/svg">
<g id="Linux_Logo_in_Linux_Libertine_Font" opacity="0.2">
<path id="Shape" fill-rule="evenodd" clip-rule="evenodd" d="M23.5912 70.4308C25.2822 69.5872 27.6978 69.1618 30.8382 69.1618V69.157C32.7707 69.157 35.911 69.389 39.776 69.8579C40.5007 71.3323 41.7086 72.2991 43.6411 72.8066L45.332 73C46.2983 73 47.2646 72.7825 47.9892 72.3474C48.7139 71.9365 49.6802 71.2598 50.6465 70.3172L53.0621 68.2603C54.2699 67.2331 55.4778 66.3654 56.6856 65.65C58.135 64.9684 59.1012 64.485 59.5844 64.2433C60.309 64.0258 60.7922 63.6874 61.2753 63.204C61.7584 62.7689 62 62.1647 62 61.3429C62 60.8112 61.7584 60.3036 61.2753 59.8202C60.8387 59.4271 60.2048 59.1129 59.7302 58.8776C59.6796 58.8525 59.6309 58.8284 59.5844 58.8051C58.8597 58.515 58.3765 58.1525 57.8934 57.7174C57.1687 57.2824 56.9271 56.7748 56.6856 56.2431L56.444 54.4545C56.2024 53.3185 55.9609 52.5934 55.7193 52.2551C55.4778 51.9167 55.2362 51.7233 54.7531 51.7233C55.2362 50.1523 55.4778 48.5329 55.4778 46.8652C55.4778 43.5056 54.7531 40.3635 53.5452 37.9466C52.579 35.2879 50.888 32.6292 48.7139 30.2122C48.3106 29.6069 47.9073 29.0437 47.5215 28.505C46.9831 27.7531 46.4789 27.0491 46.0567 26.3451C45.332 25.3783 44.8489 24.4115 44.3658 23.4447C43.8826 22.7196 43.6411 21.7528 43.3995 20.786C43.2936 20.2562 43.2341 19.7728 43.1804 19.3358C43.1115 18.7762 43.052 18.2928 42.9164 17.8856C42.9164 17.5853 42.8749 17.2435 42.8264 16.843C42.7577 16.2767 42.6748 15.5931 42.6748 14.7436C42.566 13.9814 42.5062 13.3173 42.4513 12.7071C42.3842 11.9629 42.3244 11.2988 42.1917 10.6347C41.9501 8.70112 41.467 7.25094 40.9839 5.80075C40.2592 4.59226 39.5345 3.38377 38.5682 2.65868C37.8435 1.93358 36.8773 1.45019 35.911 0.966791C34.7032 0.483396 33.7369 0.241698 33.0122 0.241698C32.2875 0 31.5628 0 30.8382 0C28.9056 0 27.2147 0.241698 25.7653 0.725094C24.3159 1.20849 23.3496 2.17528 22.625 3.14207C21.8036 4.10886 21.248 5.31735 20.934 6.52584C20.62 7.73433 20.475 8.94282 20.475 10.6347C20.475 12.81 20.5958 15.227 20.8374 17.6439C21.1031 20.0609 21.2239 21.5111 21.2239 21.9945C21.2239 22.9613 20.9823 24.1698 20.5233 25.1366C20.0644 26.1034 19.243 27.3119 17.9869 28.762L16.1752 30.9373C14.7258 32.6292 13.8078 34.3211 13.4213 36.013C12.9382 37.9466 12.5034 39.3967 12.0927 40.3635C11.7376 41.2519 11.2601 42.1403 10.6414 43.2912C10.5868 43.3928 10.5311 43.4964 10.4742 43.6023L9.62877 45.125C8.75914 46.7444 8.34848 47.977 8.34848 48.8471C8.30016 48.9922 8.30016 49.2338 8.30016 49.4997C8.30016 49.8864 8.39679 50.2006 8.59004 50.4423C8.42095 50.6357 8.30016 50.8291 8.20354 50.9982C8.15522 51.1191 8.10691 51.2641 8.0586 51.4091C8.03725 51.4519 8.0159 51.5182 7.98829 51.6039C7.95343 51.7122 7.9086 51.8515 7.84119 52.0134C7.76114 52.2537 7.64793 52.5105 7.5153 52.8115C7.48783 52.8738 7.45954 52.938 7.43053 53.0043C6.92324 53.2944 6.58505 53.4152 6.36765 53.4152H3.58965C3.05821 53.4152 2.55092 53.7294 2.01948 54.3337C1.48804 54.9379 1.24647 55.7839 1.24647 56.8473C1.24647 57.1857 1.3431 57.9833 1.53635 59.2401C1.7296 60.5211 1.82623 61.2462 1.82623 61.4879C1.82623 61.7296 1.77792 61.9713 1.7296 62.213C1.68129 62.4789 1.58466 62.6964 1.48804 62.9139C1.39141 63.1556 1.29479 63.3732 1.14985 63.5907C1.05322 63.8324 0.908283 64.0741 0.739188 64.34C0.570093 64.5817 0.400997 64.8475 0.246396 65.1134C0.082132 65.5533 0 65.9666 0 66.3533C0 66.7376 0.164264 67.0808 0.497623 67.3854C0.85997 67.6875 1.3431 67.9364 1.94701 68.1274C2.57508 68.3497 3.15484 68.5141 3.66212 68.6228C4.21772 68.734 4.84579 68.8452 5.52217 68.954C6.22271 69.0652 6.65752 69.1473 6.85078 69.2029C8.80745 69.6428 11.054 70.3099 13.5904 71.18C16.1027 72.0985 17.9628 72.5577 19.1464 72.5577C21.0306 72.5577 22.3834 71.8084 23.5912 70.3582V70.4308ZM32.0701 16.8705C31.8286 16.6288 31.8286 16.1454 31.8286 15.662C31.8286 14.6952 31.8286 14.2118 32.3117 13.4867C32.7948 13.0033 33.278 12.7616 33.7611 12.7616C34.4858 12.7616 34.9689 13.245 35.452 13.7284C35.5025 13.8798 35.5529 14.0206 35.6011 14.1552C35.7839 14.6658 35.9352 15.0883 35.9352 15.662C35.9352 16.8705 35.452 17.5956 34.4858 17.8373C34.4858 17.8373 34.7273 18.079 34.9689 18.079C35.3226 18.079 35.5468 18.2085 35.8311 18.3728C35.9352 18.4329 36.0473 18.4976 36.1767 18.5624C36.2334 18.2225 36.29 17.9091 36.3435 17.6129L36.3435 17.6129C36.5183 16.6456 36.6599 15.8621 36.6599 14.9369C36.6599 13.4867 36.4183 12.5199 35.9352 11.7949C35.2105 11.0698 34.4858 10.8281 33.5195 10.8281C32.7948 10.8281 32.0701 11.0698 31.3454 11.5532C30.8623 12.2782 30.6207 12.7616 30.6207 13.4867C30.6207 14.6952 30.8623 15.662 31.3454 16.6288C31.4662 16.6288 31.587 16.6892 31.7078 16.7497C31.8286 16.8101 31.9493 16.8705 32.0701 16.8705ZM24.0985 17.8373C23.1322 17.3539 22.8907 16.6288 22.8907 15.4203C22.8907 14.6952 22.8907 14.2118 23.3738 13.7284C23.6154 13.245 24.0985 13.0033 24.5816 13.0033C25.0648 13.0033 25.3063 13.245 25.7894 13.7284L25.7895 13.7285C26.031 14.4535 26.2726 15.1786 26.2726 15.9037V16.1454V16.3871H26.5141V16.1454C26.7557 16.1454 26.7557 15.662 26.7557 14.6952C26.7557 13.9701 26.7557 13.245 26.2726 12.5199C25.7894 11.7949 25.3063 11.3115 24.3401 11.3115C23.6154 11.3115 22.8907 11.7949 22.6491 12.5199C22.166 13.4867 22.0694 14.2118 22.0694 15.4203C22.0694 16.3871 22.4075 17.3539 23.3738 18.3207C23.4946 18.1998 23.6154 18.1394 23.7362 18.079C23.8569 18.0186 23.9777 17.9581 24.0985 17.8373ZM24.3401 13.4867C25.0648 13.4867 25.5479 14.2118 25.5479 15.4203H25.0648C25.0648 15.1786 25.0044 14.9974 24.944 14.8161C24.8836 14.6348 24.8232 14.4535 24.8232 14.2118H24.0985V13.7284C24.3401 13.7284 24.3401 13.4867 24.3401 13.4867ZM29.6545 18.079C29.6545 18.079 29.896 18.079 29.896 17.8373C29.896 17.5956 29.6545 17.3539 29.4129 17.1122L28.9298 16.8705C28.809 16.8705 28.7486 16.8705 28.7184 16.9007C28.6882 16.9309 28.6882 16.9913 28.6882 17.1122C28.6882 17.3539 28.9298 17.5956 28.9298 17.5956C29.0221 17.6879 29.0791 17.7802 29.1278 17.8591C29.2066 17.9867 29.2636 18.079 29.4129 18.079H29.6545ZM34.0027 14.2118C34.4858 14.2118 34.7273 14.6952 34.9689 15.4203H35.452C35.2105 15.1786 35.2105 14.9369 35.2105 14.6952C35.2105 14.4535 35.2105 14.2118 34.9689 13.9701C34.7273 13.7284 34.4858 13.4867 34.2442 13.4867C34.2442 13.4867 34.0027 13.7284 33.7611 13.7284C33.7611 13.8493 33.8215 13.9097 33.8819 13.9701C33.9423 14.0306 34.0027 14.091 34.0027 14.2118ZM26.5444 18.0488C26.5746 18.079 26.6349 18.079 26.7557 18.079H26.9973C27.4804 17.5956 27.722 17.3539 27.722 17.1122C27.722 17.1122 27.722 16.8705 27.4804 16.8705C27.4804 16.8705 27.2388 17.1122 26.7557 17.1122C26.5141 17.3539 26.5141 17.5956 26.5141 17.8373C26.5141 17.9582 26.5141 18.0186 26.5444 18.0488ZM54.5356 51.6025C54.5356 51.82 54.5356 51.9167 54.2941 51.9167C54.2941 51.9167 54.0525 51.7717 54.0525 51.4575C53.811 51.1433 53.5694 50.8049 53.3278 50.4423C53.0863 50.0556 52.6031 49.7172 51.6369 49.403C50.9122 49.0647 49.7044 48.8955 48.4965 48.8955C47.7718 48.8955 47.2887 49.113 46.564 49.5239C46.3224 49.7293 46.1413 49.9348 45.9601 50.1402C45.7789 50.3457 45.5978 50.5511 45.3562 50.7565C45.1146 51.1674 44.8731 51.385 44.8731 51.385C44.6315 51.385 44.6315 51.2641 44.6315 51.0466C45.3562 49.6447 46.3224 48.7505 47.2887 48.3637C48.255 45.8017 48.4965 43.7957 48.4965 42.4421C48.4965 40.7503 48.255 39.3001 47.5303 37.6082C46.8056 36.158 45.5978 35.1912 44.3899 34.7078C44.3899 34.6051 44.3899 34.546 44.4085 34.4935C44.4336 34.4225 44.4926 34.3634 44.6315 34.2244C45.8393 34.4661 46.8056 35.1912 47.7718 36.6414C48.7381 38.0916 49.2212 39.7835 49.2212 42.2004C49.2212 43.9407 48.9797 45.9226 48.255 48.1704C48.4965 48.2187 48.9797 48.2671 49.2212 48.2912C49.3408 48.2912 49.4012 48.2912 49.461 48.2971C49.522 48.3031 49.5824 48.3152 49.7044 48.3396C49.7044 48.3396 49.9459 48.3396 50.1875 48.3637C51.6369 48.5571 52.8447 49.0163 53.5694 49.7414C54.2941 50.4423 54.5356 51.0708 54.5356 51.6025ZM27.4804 23.8797C29.4129 23.8797 31.8286 22.913 34.9689 20.7377C34.9689 20.7377 34.9689 20.496 34.7273 20.496V20.0126C31.587 22.4296 29.1714 23.3964 27.2388 23.3964C25.7894 23.3964 24.3401 22.6713 22.8907 21.4628C22.6491 20.9794 22.4075 20.7377 22.4075 20.7377C22.4075 19.7709 23.3738 18.8041 24.8232 17.8373C26.5141 16.8705 27.722 16.3871 28.4467 16.3871C29.4129 16.3871 31.1039 16.8705 33.278 17.8373C35.6936 18.5624 36.9014 19.2875 37.143 19.7709C37.3846 19.7709 37.3846 20.0126 37.3846 20.2543C37.3846 20.9794 36.9014 21.4628 36.4183 21.9462L34.2442 23.3964C31.8286 25.0882 29.896 26.055 28.2051 26.055C26.9973 26.055 25.7894 25.5716 24.8232 24.6048L23.3738 23.1547C23.1322 22.913 22.8907 22.4296 22.6491 21.9462C24.0985 23.1547 25.7894 23.8797 27.4804 23.8797ZM40.5249 69.5606C41.4912 71.3782 43.1821 72.2918 45.1146 72.2918C45.5978 72.2918 46.0809 72.2193 46.564 72.0743C47.0471 71.9776 47.5303 71.8084 47.7718 71.6151C48.0134 71.4459 48.255 71.2767 48.4965 71.0833C48.8037 70.9758 48.9156 70.8877 49.0184 70.8068C49.0773 70.7605 49.1332 70.7165 49.2212 70.6724L53.3278 67.1195C54.2941 66.3485 55.2603 65.6741 56.4682 65.0892C57.265 64.6109 58.0617 64.264 58.5876 64.0351C58.6995 63.9864 58.7991 63.9431 58.8838 63.9049C59.6085 63.7116 60.0916 63.4215 60.5748 63.0348C60.8163 62.6722 61.0579 62.213 61.0579 61.6329C61.0579 60.932 60.5748 60.4003 60.0916 60.0136C59.6085 59.6269 59.1254 59.361 58.6423 59.1918C58.1591 59.0226 57.676 58.6359 56.9513 57.9833C56.4682 57.3549 55.985 56.4848 55.7435 55.3488L55.5019 53.947C55.4044 53.6837 55.3463 53.4479 55.2958 53.2429L55.2957 53.2427L55.2957 53.2425L55.2957 53.2425C55.221 52.9395 55.1628 52.7036 55.0188 52.5451C55.0188 52.4726 55.0188 52.4484 54.7772 52.4484C54.5357 52.4484 54.0525 52.666 53.811 53.0768C53.3278 53.4877 52.8447 53.947 52.3616 54.4304C52.187 54.7797 51.76 55.1039 51.3543 55.4119L51.3542 55.4119C51.1986 55.53 51.0461 55.6458 50.9122 55.7597C50.1875 56.1706 49.4628 56.3881 48.9797 56.3881C47.0471 56.3881 46.0809 55.8564 45.3562 54.8171C44.8731 54.0436 44.6315 53.1494 44.3899 52.1342L44.3497 52.1C43.893 51.7113 43.6516 51.5058 43.1821 51.5058C41.9743 51.5058 41.4912 52.7626 41.4912 55.3005V56.0981V58.9018V61.0529V62.0922V62.8173C41.4912 62.8934 41.4615 63.0022 41.423 63.1436L41.423 63.1436L41.423 63.1436C41.3516 63.406 41.2496 63.7806 41.2496 64.2675C41.008 65.0167 41.008 65.8675 41.008 66.8295L40.5249 69.5123V69.5534V69.5606ZM13.2522 70.38C10.3293 69.3069 7.74456 68.6035 5.49801 68.2748V68.2676C2.57508 67.8808 0.980753 67.221 0.739188 66.2832C0.739188 65.7321 1.05322 64.9587 1.65713 63.9194C2.26105 62.9285 2.55092 61.9375 2.55092 60.9465C2.55092 60.439 2.4543 59.7139 2.26105 58.8196C2.06779 57.9011 1.97117 57.2486 1.97117 56.8618C1.97117 56.0159 2.2852 55.2183 2.88911 54.5174C3.34809 54.2757 4.21772 54.1306 5.49801 54.1306H6.15024C6.46427 54.1065 6.68168 54.1065 6.80246 54.1065C7.35806 53.9856 7.76872 53.8648 8.01029 53.7198C8.25185 53.5506 8.39679 53.2122 8.46926 52.7046C8.51757 52.1729 8.71082 51.6653 9.04901 51.2061C9.3872 50.7469 10.0877 50.4085 11.1023 50.2151C11.8995 50.4085 12.6242 50.771 13.2522 51.327C13.9045 51.8829 14.4118 52.4388 14.7258 52.9947C15.0881 53.5022 15.5471 54.2273 16.0544 55.17C16.5858 56.1126 16.9965 56.8135 17.3347 57.2727L18.9773 59.4722C21.7312 62.9768 23.1081 65.8651 23.1081 68.1491C23.1081 68.7824 23.1081 69.3334 22.8665 69.8023C21.707 71.2501 20.3059 71.9994 18.615 71.9994C17.9628 71.9994 16.1752 71.4435 13.2522 70.38ZM13.5421 46.2972C13.5421 44.6295 13.9769 42.7926 14.8707 40.6173C15.7404 38.442 16.61 36.9919 17.4555 36.0251C17.4072 35.7834 17.2864 35.7834 17.0931 35.7834L16.8516 35.5417C16.151 36.2668 15.3055 37.9586 14.291 40.3756C13.2764 42.5509 12.745 44.557 12.745 46.0314C12.745 47.119 13.0107 48.0616 13.4938 48.8834C14.0252 49.681 15.3055 50.8411 17.3347 52.3155L19.8953 53.9832C22.625 56.3519 24.0743 57.9954 24.0743 58.9622C24.0743 59.4698 23.8328 59.9773 23.1081 60.5332C22.625 61.1133 21.9727 61.4033 21.4171 61.4033C21.3688 61.4033 21.3447 61.4517 21.3447 61.5725C21.3447 61.5967 21.5862 62.0801 22.0935 63.0227C23.1081 64.4004 25.2822 65.0771 28.1809 65.0771C33.4954 65.0771 37.602 62.9019 40.7423 58.5513C40.7423 57.3428 40.7423 56.5936 40.5007 56.2793V55.3851C40.5007 53.814 40.7423 52.6297 41.2254 51.8563C41.7086 51.0828 42.1917 50.7203 42.9164 50.7203C43.3995 50.7203 43.8826 50.8895 44.3658 51.252C44.6073 49.391 44.6073 47.7716 44.6073 46.3214C44.6073 44.1219 44.6073 42.3092 44.1242 40.6173C43.8826 39.1671 43.3995 37.9586 42.9164 36.9919L41.467 34.8166C41.2254 34.454 41.0443 34.0915 40.8631 33.7289C40.6819 33.3664 40.5007 33.0038 40.2592 32.6413C40.2239 32.5002 40.1887 32.3643 40.1542 32.2313L40.1542 32.2313C39.9523 31.4526 39.776 30.7731 39.776 29.7409C39.4137 29.1367 39.1118 28.5324 38.8098 27.9282L38.8098 27.9282C38.5078 27.3239 38.2059 26.7197 37.8435 26.1155L37.8435 26.1153C37.3604 24.9068 36.8772 23.6984 36.3941 22.7317L34.2201 24.4236C31.8044 26.1155 29.8719 26.8405 28.1809 26.8405C26.7316 26.8405 25.5237 26.5988 24.799 25.6321L23.3496 24.4236C23.3496 25.1487 23.1081 26.1155 22.625 27.0822L21.1031 29.9826C20.4267 31.6745 20.0644 32.6413 19.9919 33.3664C19.966 33.4959 19.9418 33.6254 19.9194 33.7457C19.8582 34.0741 19.8099 34.3332 19.7745 34.3332L17.9628 37.9586C16.0061 41.5841 15.0157 44.9437 15.0157 47.7232C15.0157 48.2791 15.064 48.8592 15.1606 49.4393C14.0736 48.69 13.5421 47.6507 13.5421 46.2972Z" fill="white"/>
</g>
</svg>
