<?xml version="1.0" encoding="UTF-8"?>
<svg width="77px" height="91px" viewBox="0 0 77 91" version="1.1" xmlns="http://www.w3.org/2000/svg" xmlns:xlink="http://www.w3.org/1999/xlink">
    <title>5D2633F5-9FCD-46C5-8A4A-81040DC04440</title>
    <g id="Page-1" stroke="none" stroke-width="1" fill="none" fill-rule="evenodd">
        <g id="Desktop-HD" transform="translate(-612.000000, -474.000000)" fill="#FFFFFF" fill-rule="nonzero">
            <g id="Linux_Logo_in_Linux_Libertine_Font" transform="translate(612.000000, 474.000000)">
                <path d="M37.1289644,22.2355395 C37.1289644,22.5368341 36.8289566,22.5368341 36.8289566,22.5368341 L36.5289488,22.5368341 C36.228941,22.5368341 36.228941,22.2355395 35.9289332,21.9342449 C35.9289332,21.9342449 35.6289254,21.6329504 35.6289254,21.3316558 C35.6289254,21.0303612 35.6289254,21.0303612 35.9289332,21.0303612 L36.5289488,21.3316558 C36.8289566,21.6329504 37.1289644,21.9342449 37.1289644,22.2355395 M31.7288241,19.2225938 C31.7288241,17.7161209 31.1288085,16.8122372 30.2287852,16.8122372 C30.2287852,16.8122372 30.2287852,17.1135318 29.9287774,17.1135318 L29.9287774,17.7161209 L30.8288007,17.7161209 C30.8288007,18.3187101 31.1288085,18.6200046 31.1288085,19.2225938 L31.7288241,19.2225938 M42.2290969,17.7161209 C42.8291124,17.7161209 43.1291202,18.3187101 43.429128,19.2225938 L44.0291436,19.2225938 C43.7291358,18.9212992 43.7291358,18.6200046 43.7291358,18.3187101 C43.7291358,18.0174155 43.7291358,17.7161209 43.429128,17.4148263 C43.1291202,17.1135318 42.8291124,16.8122372 42.5291047,16.8122372 C42.5291047,16.8122372 42.2290969,17.1135318 41.9290891,17.1135318 C41.9290891,17.4148263 42.2290969,17.4148263 42.2290969,17.7161209 M33.2288631,22.5368341 C32.9288553,22.5368341 32.9288553,22.5368341 32.9288553,22.2355395 C32.9288553,21.9342449 32.9288553,21.6329504 33.2288631,21.3316558 C33.8288787,21.3316558 34.1288865,21.0303612 34.1288865,21.0303612 C34.4288943,21.0303612 34.4288943,21.3316558 34.4288943,21.3316558 C34.4288943,21.6329504 34.1288865,21.9342449 33.5288709,22.5368341 L33.2288631,22.5368341 M29.9287774,22.2355395 C28.7287462,21.6329504 28.4287384,20.7290666 28.4287384,19.2225938 C28.4287384,18.3187101 28.4287384,17.7161209 29.028754,17.1135318 C29.3287618,16.5109426 29.9287774,16.209648 30.528793,16.209648 C31.1288085,16.209648 31.4288163,16.5109426 32.0288319,17.1135318 C32.3288397,18.0174155 32.6288475,18.9212992 32.6288475,19.8251829 L32.6288475,20.1264775 L32.6288475,20.4277721 L32.9288553,20.4277721 L32.9288553,20.1264775 C33.2288631,20.1264775 33.2288631,19.5238884 33.2288631,18.3187101 C33.2288631,17.4148263 33.2288631,16.5109426 32.6288475,15.6070589 C32.0288319,14.7031752 31.4288163,14.100586 30.2287852,14.100586 C29.3287618,14.100586 28.4287384,14.7031752 28.1287306,15.6070589 C27.528715,16.8122372 27.4087119,17.7161209 27.4087119,19.2225938 C27.4087119,20.4277721 27.8287228,21.6329504 29.028754,22.8381287 C29.3287618,22.5368341 29.6287696,22.5368341 29.9287774,22.2355395 M67.4297514,64.7180744 C67.7297592,64.7180744 67.7297592,64.5975565 67.7297592,64.3263914 C67.7297592,63.6635434 67.4297514,62.8801775 66.529728,62.0064232 C65.6297047,61.1025395 64.1296657,60.5300798 62.329619,60.2890441 C62.0296112,60.2589147 61.7296034,60.2589147 61.7296034,60.2589147 C61.4295956,60.1986558 61.4295956,60.1986558 61.1295878,60.1986558 C60.82958,60.1685263 60.2295644,60.1082674 59.9295566,60.0480085 C60.82958,57.2459689 61.1295878,54.7753534 61.1295878,52.6060325 C61.1295878,49.5930868 60.5295722,47.4840248 59.329541,45.6762573 C58.1295099,43.8684899 56.9294787,42.9646062 55.4294397,42.6633116 C55.1294319,42.9646062 55.1294319,42.9646062 55.1294319,43.2659007 C56.6294709,43.8684899 58.1295099,45.0736682 59.0295332,46.8814356 C59.9295566,48.9904976 60.2295644,50.7982651 60.2295644,52.9073271 C60.2295644,54.5945767 59.9295566,57.0953217 58.7295254,60.2890441 C57.5294943,60.7711155 56.3294631,61.8859054 55.4294397,63.6334139 C55.4294397,63.904579 55.4294397,64.0552263 55.7294475,64.0552263 C55.7294475,64.0552263 56.0294553,63.7840612 56.3294631,63.2718604 C56.9294787,62.7596596 57.2294865,62.2474589 57.8295021,61.7352581 C58.7295254,61.2230573 59.329541,60.9518922 60.2295644,60.9518922 C61.7296034,60.9518922 63.2296423,61.1627984 64.1296657,61.5846108 C65.3296969,61.9762937 65.9297125,62.3981061 66.2297203,62.8801775 C66.529728,63.3321193 66.8297358,63.7539317 67.1297436,64.1456147 C67.1297436,64.5372976 67.4297514,64.7180744 67.4297514,64.7180744 M39.8290345,21.0303612 C39.5290267,20.7290666 39.5290267,20.1264775 39.5290267,19.5238884 C39.5290267,18.3187101 39.5290267,17.7161209 40.1290423,16.8122372 C40.7290579,16.209648 41.3290735,15.9083535 41.9290891,15.9083535 C42.8291124,15.9083535 43.429128,16.5109426 44.0291436,17.1135318 C44.3291514,18.0174155 44.6291592,18.6200046 44.6291592,19.5238884 C44.6291592,21.0303612 44.0291436,21.9342449 42.8291124,22.2355395 C42.8291124,22.2355395 43.1291202,22.5368341 43.429128,22.5368341 C44.0291436,22.5368341 44.3291514,22.8381287 44.929167,23.1394232 C45.2291748,21.3316558 45.5291826,20.1264775 45.5291826,18.6200046 C45.5291826,16.8122372 45.2291748,15.6070589 44.6291592,14.7031752 C43.7291358,13.7992915 42.8291124,13.4979969 41.6290813,13.4979969 C40.7290579,13.4979969 39.8290345,13.7992915 38.9290111,14.4018806 C38.3289956,15.3057643 38.0289878,15.9083535 38.0289878,16.8122372 C38.0289878,18.3187101 38.3289956,19.5238884 38.9290111,20.7290666 C39.2290189,20.7290666 39.5290267,21.0303612 39.8290345,21.0303612 M43.429128,25.8510744 C39.5290267,28.5627256 36.5289488,29.7679039 34.1288865,29.7679039 C32.0288319,29.7679039 29.9287774,28.8640201 28.1287306,27.3575473 C28.4287384,27.9601364 28.7287462,28.5627256 29.028754,28.8640201 L30.8288007,30.6717876 C32.0288319,31.8769659 33.5288709,32.479555 35.0289098,32.479555 C37.1289644,32.479555 39.5290267,31.2743767 42.5291047,29.1653147 L45.2291748,27.3575473 C45.8291904,26.7549581 46.429206,26.152369 46.429206,25.2484852 C46.429206,24.9471907 46.429206,24.6458961 46.1291982,24.6458961 C45.8291904,24.043307 44.3291514,23.1394232 41.3290735,22.2355395 C38.6290034,21.0303612 36.5289488,20.4277721 35.3289176,20.4277721 C34.4288943,20.4277721 32.9288553,21.0303612 30.8288007,22.2355395 C29.028754,23.4407178 27.8287228,24.6458961 27.8287228,25.8510744 C27.8287228,25.8510744 28.1287306,26.152369 28.4287384,26.7549581 C30.2287852,28.261431 32.0288319,29.1653147 33.8288787,29.1653147 C36.228941,29.1653147 39.2290189,27.9601364 43.1291202,24.9471907 L43.1291202,25.5497798 C43.429128,25.5497798 43.429128,25.8510744 43.429128,25.8510744 M50.3293073,86.7125782 C51.5293384,88.9783134 53.629393,90.1172069 56.0294553,90.1172069 C56.6294709,90.1172069 57.2294865,90.0268185 57.8295021,89.8460418 C58.4295176,89.725524 59.0295332,89.5146178 59.329541,89.2735821 C59.6295488,89.0626759 59.9295566,88.8517697 60.2295644,88.610734 C60.82958,88.3998278 60.82958,88.2491805 61.1295878,88.0985333 L66.2297203,83.669503 C67.4297514,82.7083733 68.6297826,81.8677615 70.1298216,81.1386286 C71.3298527,80.4155216 72.5298839,79.9334503 73.1298995,79.6622852 C74.0299229,79.4212495 74.6299384,79.0596961 75.229954,78.5776247 C75.5299618,78.1256829 75.8299696,77.5532232 75.8299696,76.8301162 C75.8299696,75.956362 75.229954,75.2935139 74.6299384,74.8114426 C74.0299229,74.3293713 73.4299073,73.9979472 72.8298917,73.787041 C72.2298761,73.5761348 71.6298605,73.0940635 70.7298371,72.2805682 C70.1298216,71.4972023 69.529806,70.4125418 69.2297982,68.9964573 L68.9297904,67.2489488 C68.6297826,66.4354534 68.6297826,65.8328643 68.3297748,65.5014403 C68.3297748,65.4110519 68.3297748,65.3809224 68.029767,65.3809224 C67.7297592,65.3809224 67.1297436,65.6520875 66.8297358,66.1642883 C66.2297203,66.6764891 65.6297047,67.2489488 65.0296891,67.8515379 C64.7296813,68.4541271 63.8296579,68.9964573 63.2296423,69.5086581 C62.329619,70.0208589 61.4295956,70.292024 60.82958,70.292024 C58.4295176,70.292024 57.2294865,69.6291759 56.3294631,68.3336092 C55.7294475,67.3694666 55.4294397,66.2546767 55.1294319,64.9892395 C54.5294163,64.4770387 54.2294086,64.2058736 53.629393,64.2058736 C52.129354,64.2058736 51.5293384,65.7726054 51.5293384,68.9361984 L51.5293384,69.9304705 L51.5293384,73.4254875 L51.5293384,76.1070092 L51.5293384,77.4025759 L51.5293384,78.3064596 C51.5293384,78.5776247 51.2293306,79.1802139 51.2293306,80.1142271 C50.9293228,81.0482402 50.9293228,82.1087971 50.9293228,83.3079495 L50.3293073,86.6523193 L50.3293073,86.7035394 M6.82817736,85.1096911 C9.61824982,85.5194517 12.8283332,86.3962189 16.4584275,87.7339668 C20.0885218,89.0596629 22.3085794,89.7526405 23.1186005,89.7526405 C25.218655,89.7526405 26.9587002,88.8186273 28.3987376,87.0138728 C28.6987454,86.4293613 28.6987454,85.7424097 28.6987454,84.9530179 C28.6987454,82.1057842 26.988701,78.505314 23.5686122,74.1365427 L21.5285592,71.3947621 C21.1085483,70.8223024 20.598535,69.9485482 19.9385179,68.7734993 C19.3085015,67.5984505 18.7384867,66.6945668 18.288475,66.0618482 C17.8984649,65.3688706 17.2684485,64.6758931 16.4584275,63.9829156 C15.6784072,63.2899381 14.7783839,62.8379962 13.7883581,62.5969606 C12.5283254,62.8379962 11.6583028,63.2598086 11.2382919,63.8322683 C10.818281,64.404728 10.5782748,65.0374466 10.5182732,65.7002947 C10.4282709,66.3330133 10.2482662,66.7548257 9.9482584,66.9657319 C9.6482506,67.1465086 9.13823736,67.2971559 8.44821943,67.4478032 C8.29821554,67.4478032 8.02820852,67.4478032 7.63819839,67.4779327 L6.82817736,67.4779327 C5.23813606,67.4779327 4.158108,67.6587094 3.5880932,67.960004 C2.83807372,68.8337582 2.44806359,69.8280303 2.44806359,70.8825613 C2.44806359,71.3646327 2.5680667,72.178128 2.80807294,73.3230474 C3.04807917,74.4378373 3.16808229,75.341721 3.16808229,75.9744396 C3.16808229,77.2097474 2.80807294,78.4450551 2.05805346,79.6803629 C1.30803397,80.9759295 0.918023845,81.9400722 0.918023845,82.6270238 C1.21803164,83.7960468 3.19808307,84.6185809 6.82817736,85.1006523 M16.8184368,57.7129755 C16.8184368,55.634043 17.3584509,53.3442042 18.4684797,50.6325531 C19.5485078,47.9209019 20.6285358,46.1131345 21.6785631,44.9079562 C21.6185615,44.6066616 21.4685576,44.6066616 21.2285514,44.6066616 L20.9285436,44.305367 C20.058521,45.2092507 19.0084937,47.3183128 17.748461,50.3312585 C16.4884283,53.0429096 15.8284111,55.5436546 15.8284111,57.3815515 C15.8284111,58.7373771 16.1584197,59.9124259 16.7584353,60.9368275 C17.4184524,61.9310996 19.0084937,63.3773135 21.5285592,65.2152104 L24.7086418,67.294143 C28.0987298,70.2468298 29.8987766,72.2956329 29.8987766,73.5008112 C29.8987766,74.1335298 29.5987688,74.7662484 28.6987454,75.4592259 C28.0987298,76.1823329 27.2887088,76.5438864 26.5986909,76.5438864 C26.5386893,76.5438864 26.5086885,76.6041453 26.5086885,76.7547926 C26.5086885,76.784922 26.8086963,77.3875112 27.4387127,78.56256 C28.6987454,80.2799391 31.3988156,81.1235639 34.9989091,81.1235639 C41.5990805,81.1235639 46.699213,78.4119127 50.5993143,72.9886104 C50.5993143,71.4821375 50.5993143,70.5481244 50.2993065,70.1564414 L50.2993065,69.0416515 C50.2993065,67.0832368 50.5993143,65.6068934 51.1993299,64.6427507 C51.7993454,63.6786081 52.399361,63.2266662 53.2993844,63.2266662 C53.8994,63.2266662 54.4994156,63.4375724 55.0994312,63.8895143 C55.3994389,61.5695461 55.3994389,59.5508724 55.3994389,57.743105 C55.3994389,55.0013244 55.3994389,52.7416151 54.7994234,50.6325531 C54.4994156,48.8247856 53.8994,47.3183128 53.2993844,46.1131345 C52.6993688,45.2092507 52.0993532,44.305367 51.4993376,43.4014833 C50.8993221,42.4975996 50.5993143,41.5937159 49.9992987,40.6898321 C49.6992909,39.4846538 49.3992831,38.5807701 49.3992831,37.0742973 C48.4992597,35.5678244 47.8992441,34.0613515 46.9992208,32.5548787 C46.3992052,31.0484058 45.7991896,29.5419329 45.199174,28.3367546 L42.4991039,30.4458166 C39.4990259,32.5548787 37.0989636,33.4587624 34.9989091,33.4587624 C33.1988623,33.4587624 31.6988233,33.1574678 30.7988,31.9522895 L28.9987532,30.4458166 C28.9987532,31.3497004 28.6987454,32.5548787 28.0987298,33.7600569 L26.2086807,37.3755918 C25.3686589,39.4846538 24.9186472,40.6898321 24.8286449,41.5937159 C24.7086418,42.196305 24.6186394,42.7988941 24.5586379,42.7988941 L22.3085794,47.3183128 C19.8785163,51.8377314 18.6484844,56.0257259 18.6484844,59.4906135 C18.6484844,60.183591 18.7084859,60.906698 18.8284891,61.629805 C17.478454,60.6957918 16.8184368,59.4002251 16.8184368,57.7129755 M38.2989948,86.2154422 C34.3988935,86.2154422 31.3988156,86.7457206 29.298761,87.7972387 L29.298761,87.7068503 C27.798722,89.5146178 26.1186784,90.4486309 23.7786176,90.4486309 C22.3085794,90.4486309 19.9985194,89.8761712 16.8784384,88.7312519 C13.7283566,87.6465914 10.9382841,86.8150184 8.50822099,86.2666623 C8.26821476,86.1973645 7.72820073,86.0949243 6.85817813,85.9563288 C6.01815632,85.8207463 5.23813606,85.6821508 4.54811813,85.5435553 C3.91810177,85.4079727 3.19808307,85.2030924 2.41806281,84.9259014 C1.66804333,84.6878787 1.06802774,84.3775453 0.618016052,84.0009271 C0.204005299,83.6212959 0,83.1934576 0,82.7143992 C0,82.2323279 0.102002649,81.7171142 0.306007948,81.1687581 C0.498012935,80.837334 0.70801839,80.50591 0.918023845,80.2046154 C1.1280293,79.8731914 1.30803397,79.5718968 1.42803709,79.2706023 C1.60804177,78.9994371 1.72804488,78.728272 1.848048,78.4269775 C1.96805112,78.1558123 2.08805424,77.8846472 2.14805579,77.5532232 C2.20805735,77.2519286 2.26805891,76.950634 2.26805891,76.6493395 C2.26805891,76.3480449 2.14805579,75.4441612 1.90804956,73.8472999 C1.66804333,72.2805682 1.54804021,71.2862961 1.54804021,70.8644837 C1.54804021,69.5387875 1.848048,68.4842565 2.50806514,67.7310201 C3.16808229,66.9777837 3.79809865,66.5861007 4.4581158,66.5861007 L7.90820541,66.5861007 C8.17821242,66.5861007 8.59822333,66.4354534 9.22823969,66.0738999 C9.43824515,65.5918286 9.61824982,65.2001457 9.73825294,64.8385922 C9.88825684,64.4770387 9.9482584,64.2058736 10.00826,64.0853558 C10.0682615,63.904579 10.1282631,63.7238023 10.1882646,63.573155 C10.3082677,63.3622488 10.4582716,63.1212131 10.6682771,62.8801775 C10.4282709,62.5788829 10.3082677,62.1871999 10.3082677,61.7051286 C10.3082677,61.3737046 10.3082677,61.07241 10.3682693,60.8916333 C10.3682693,59.8069728 10.8782826,58.2703705 11.9583106,56.2516969 L13.0083379,54.353541 C13.8783605,52.7265503 14.5383776,51.521372 15.0183901,50.3161938 C15.5284033,49.1110155 16.0684174,47.303248 16.6684329,44.8928914 C17.1484454,42.7838294 18.288475,40.6747674 20.0885218,38.5657054 L22.3385802,35.8540542 C23.8986207,34.0462868 24.9186472,32.5398139 25.488662,31.3346356 C26.0586768,30.1294573 26.3586846,28.6229845 26.3586846,27.4178062 C26.3586846,26.815217 26.2086807,25.0074496 25.8786722,21.9945039 C25.5786644,18.9815581 25.4286605,15.9686124 25.4286605,13.2569612 C25.4286605,11.1478992 25.6086652,9.64142635 25.9986753,8.13495348 C26.3886854,6.62848061 27.0787033,5.12200775 28.0987298,3.91682945 C28.9987532,2.71165116 30.1987844,1.50647287 31.9988311,0.90388372 C33.7988779,0.301294573 35.8989324,0 38.2989948,0 C39.1990182,0 40.0990415,0 40.9990649,0.301294573 C41.8990883,0.301294573 43.0991195,0.602589147 44.5991584,1.20517829 C45.7991896,1.80776744 46.9992208,2.41035659 47.8992441,3.31424031 C49.0992753,4.21812403 49.9992987,5.72459689 50.8993221,7.23106976 C51.4993376,9.0388372 52.0993532,10.8466046 52.399361,13.2569612 C52.6993688,14.7634341 52.6993688,16.269907 52.9993766,18.378969 C52.9993766,20.1867364 53.2993844,21.3919147 53.2993844,22.2957984 C53.5993922,23.1996822 53.5993922,24.4048604 53.8994,25.9113333 C54.1994078,27.1165116 54.4994156,28.3216899 55.0994312,29.2255736 C55.6994467,30.4307519 56.2994623,31.6359302 57.1994857,32.8411085 C58.0995091,34.3475814 59.2995402,35.8540542 60.4995714,37.6618217 C63.1996415,40.6747674 65.2996961,43.9890077 66.4997273,47.303248 C67.9997662,50.3161938 68.8997896,54.2330232 68.8997896,58.4210178 C68.8997896,60.4999503 68.5997818,62.518624 67.9997662,64.4770387 C68.5997818,64.4770387 68.8997896,64.7180744 69.1997974,65.1398868 C69.4998052,65.5616992 69.799813,66.4655829 70.0998208,67.8816674 L70.3998286,70.1112472 C70.6998364,70.7740953 70.9998442,71.4068139 71.8998675,71.9491441 C72.4998831,72.4914744 73.0998987,72.9434162 73.9999221,73.3049697 C74.5999377,73.6062643 75.499961,74.0280767 76.0999766,74.5704069 C76.6999922,75.1729961 77,75.8057147 77,76.4685627 C77,77.4929643 76.6999922,78.2462007 76.0999766,78.7885309 C75.499961,79.3911201 74.8999455,79.8129325 73.9999221,80.0840976 C73.3999065,80.3853922 72.1998753,80.9879813 70.3998286,81.837632 C68.8997896,82.729464 67.3997506,83.8111115 65.8997117,85.0916134 L62.8996338,87.6556302 C61.6996026,88.8306791 60.4995714,89.6743039 59.599548,90.1865047 C58.6995247,90.7288349 57.4994935,91 56.2994623,91 L54.1994078,90.7589643 C51.7993454,90.1262457 50.2993065,88.9210674 49.3992831,87.0831705 C44.5991584,86.4986591 40.6990571,86.2094163 38.2989948,86.2094163" id="Shape"></path>
            </g>
        </g>
    </g>
</svg>