<svg width="72" height="64" viewBox="0 0 72 64" fill="none" xmlns="http://www.w3.org/2000/svg">
<g id="react.116e502cf0410bcef0189289958f8276" opacity="0.2">
<path id="Shape" fill-rule="evenodd" clip-rule="evenodd" d="M56.8809 20.014C57.6597 20.2377 58.4324 20.4809 59.1987 20.7436C66.975 23.4181 72 27.6076 72 31.9394C72 36.4571 66.6299 40.8742 58.3757 43.6061C57.9387 43.7502 57.4924 43.8894 57.0367 44.0238C57.2003 44.6776 57.3442 45.3185 57.4685 45.9466C59.098 54.1699 57.8432 60.9288 53.9812 63.1623C50.2419 65.3249 44.1984 63.2005 38.0791 57.9398C37.4138 57.3664 36.765 56.775 36.1329 56.1657C35.6306 56.6519 35.1298 57.1131 34.6304 57.5492C28.313 63.0662 21.8253 65.3551 17.9598 63.1283C14.2173 60.9715 13.0412 54.6799 14.5471 46.7562C14.7118 45.8948 14.9003 45.0388 15.1127 44.1881C14.4586 44.0015 13.8097 43.7988 13.1658 43.58C5.22579 40.8691 0 36.3975 0 31.9394C0 27.6232 4.86826 23.4617 12.491 20.8067C13.343 20.51 14.2336 20.2311 15.1558 19.9694C14.9582 19.1796 14.7808 18.3854 14.6236 17.5869C13.0441 9.52309 14.1555 3.07872 17.9079 0.908533C21.8212 -1.35461 28.3385 1.07567 34.8405 6.84342C35.245 7.20306 35.6426 7.57003 36.0335 7.94431C36.6173 7.38127 37.2148 6.83339 37.8262 6.30067C44.0302 0.906876 50.173 -1.3497 53.9289 0.814551C57.8463 3.07103 58.9935 9.92572 57.239 18.4346C57.1294 18.9633 57.01 19.4898 56.8809 20.014ZM52.3927 3.47667C50.1291 2.1724 45.1611 3.99709 39.8454 8.61898C39.2809 9.11111 38.729 9.61686 38.1897 10.1362C40.3869 12.5263 42.4202 15.0617 44.2759 17.7251C47.5149 18.0188 50.7309 18.5264 53.9028 19.2446C54.0193 18.7698 54.1273 18.2931 54.2265 17.8145C55.7414 10.4679 54.8036 4.86595 52.3927 3.47667ZM21.2591 35.6265C21.9103 36.883 22.5907 38.1238 23.3004 39.3487C24.0244 40.5978 24.7779 41.8292 25.5609 43.0428C23.3322 42.8012 21.1175 42.4455 18.9254 41.977C19.5611 39.9261 20.3443 37.7945 21.2591 35.6265ZM18.9678 22.175C19.5936 24.1901 20.3599 26.2769 21.2557 28.3993C21.9042 27.1433 22.5816 25.9033 23.288 24.6794C23.9954 23.4539 24.7312 22.2458 25.4952 21.0553C23.2126 21.3403 21.0221 21.7156 18.9678 22.175ZM22.8906 32.0132C23.8383 30.0426 24.8592 28.1095 25.9531 26.2142V26.2148C27.046 24.3204 28.2097 22.4695 29.4442 20.6621C31.5854 20.5004 33.781 20.4157 36.0003 20.4157C38.2296 20.4157 40.4279 20.501 42.5686 20.6641C43.7898 22.4673 44.9461 24.3119 46.0377 26.1979C47.1347 28.0877 48.1693 30.0116 49.1416 31.9696C48.1799 33.9466 47.1486 35.8874 46.0479 37.7922H46.0475C44.9569 39.6851 43.8055 41.5411 42.5934 43.3602C40.4572 43.5127 38.2496 43.5913 36 43.5913C33.7596 43.5913 31.58 43.5216 29.4812 43.3857C28.2383 41.5718 27.0653 39.7129 25.9624 37.8091C24.8654 35.9167 23.8414 33.9847 22.8906 32.0132H22.8906ZM50.8001 35.516C50.1323 36.8021 49.4363 38.0725 48.7121 39.3273H48.7121C47.9995 40.5622 47.2626 41.7824 46.5016 42.9877C48.7588 42.7235 51.0006 42.3417 53.218 41.8439C52.5222 39.6942 51.7152 37.5821 50.8001 35.516ZM50.7709 28.4015C50.1055 27.1401 49.4151 25.8924 48.6997 24.6584C47.9958 23.4437 47.266 22.2446 46.5103 21.0611C48.8077 21.3508 51.0087 21.7359 53.0753 22.2074C52.4119 24.3095 51.6428 26.3768 50.7709 28.4015ZM50.7709 28.4015L50.7709 28.4016H50.7709L50.7709 28.4015ZM40.2715 17.444C38.9462 15.6704 37.532 13.9648 36.0344 12.3338C34.5935 13.887 33.1607 15.5991 31.7617 17.442C34.5999 17.3095 37.4365 17.3101 40.2715 17.444ZM19.4489 3.56802C21.8579 2.17493 27.184 4.16141 32.7979 9.14128C33.1567 9.45963 33.5171 9.79293 33.8782 10.1377C31.6683 12.5273 29.6194 15.0606 27.7449 17.7209C24.5134 18.0105 21.3041 18.5088 18.1371 19.2128C17.9534 18.4782 17.7884 17.7395 17.6422 16.9964V16.9967C16.2889 10.0875 17.1875 4.87593 19.4489 3.56802ZM14.1606 40.6723C14.7487 40.8722 15.3412 41.0575 15.938 41.2282C16.918 38.082 18.1049 35.004 19.491 32.0142C18.1221 29.0665 16.9498 26.0317 15.9818 22.9294C15.148 23.165 14.3219 23.4246 13.5037 23.7084C6.9845 25.9792 3.07568 29.3203 3.07568 31.9394C3.34153 33.6745 4.31433 35.2224 5.76313 36.2155C8.26499 38.2031 11.1115 39.7139 14.1606 40.6723ZM32.6064 55.2354C30.2521 57.3955 27.52 59.1043 24.5466 60.2764H24.5463C22.9617 61.0341 21.1338 61.1028 19.4967 60.4662C17.2254 59.1577 16.2815 54.1055 17.5692 47.3295C17.7223 46.5287 17.8976 45.7326 18.0951 44.9412C21.2939 45.6277 24.5356 46.0965 27.7979 46.3445C29.6886 49.0199 31.7532 51.5684 33.9783 53.9734C33.5313 54.4052 33.074 54.8258 32.6064 55.2354ZM31.7875 46.5826C33.2077 48.4522 34.6617 50.1905 36.1195 51.7621V51.7621C37.6163 50.1039 39.0271 48.3701 40.3463 46.5676C38.9164 46.6319 37.4677 46.6641 36 46.6641C34.5701 46.664 33.166 46.6368 31.7875 46.5826ZM54.7973 56.0375C54.663 57.7875 53.8097 59.4039 52.44 60.5029C50.1709 61.8152 45.3183 60.1095 40.0855 55.6105C39.4855 55.0948 38.882 54.5451 38.2749 53.9615C40.4569 51.5481 42.4733 48.9902 44.3101 46.3053C47.5912 46.0287 50.8494 45.527 54.0616 44.8036C54.2082 45.3958 54.3381 45.9758 54.4513 46.5437C55.1488 49.6603 55.2661 52.8785 54.7973 56.0375V56.0375ZM57.4083 40.6895H57.4086V40.6895C64.5351 38.3303 68.9244 34.7202 68.9244 31.9393C68.9244 29.3288 64.8604 25.9406 58.1975 23.6495C57.5086 23.4124 56.7936 23.1879 56.0572 22.9746C55.091 26.0427 53.9203 29.0427 52.5531 31.9546C53.974 34.9059 55.1922 37.9506 56.199 41.0673C56.6107 40.9454 57.0147 40.8197 57.4083 40.6895Z" fill="white"/>
<path id="Path" d="M36 25.516C38.6005 25.516 40.945 27.081 41.9402 29.4813C42.9354 31.8816 42.3853 34.6445 40.5465 36.4816C38.7076 38.3188 35.9422 38.8683 33.5396 37.874C31.1371 36.8798 29.5706 34.5375 29.5707 31.9394C29.5707 30.2358 30.2481 28.602 31.4538 27.3974C32.6595 26.1928 34.2948 25.516 36 25.516Z" fill="white"/>
</g>
</svg>
