<?xml version="1.0" encoding="UTF-8"?>
<svg width="90px" height="80px" viewBox="0 0 90 80" version="1.1" xmlns="http://www.w3.org/2000/svg" xmlns:xlink="http://www.w3.org/1999/xlink">
    <title>8A9EB43C-03A5-4E8A-9C3A-D8249D5157E2</title>
    <g id="Page-1" stroke="none" stroke-width="1" fill="none" fill-rule="evenodd">
        <g id="Desktop-HD" transform="translate(-963.000000, -342.000000)" fill="#FFFFFF" fill-rule="nonzero">
            <g id="react.116e502cf0410bcef0189289958f8276" transform="translate(963.000000, 342.000000)">
                <path d="M73.9983913,25.9295597 L73.9983913,25.9295597 C73.0404522,25.6011695 72.074687,25.2971479 71.1010957,25.0174949 C71.2624957,24.3622521 71.4117261,23.7041685 71.548787,23.043244 C73.7418522,12.4071531 72.3079174,3.838787 67.4111739,1.01818845 C62.7163043,-1.68712167 55.0377391,1.13359416 47.282713,7.87583684 C46.5185478,8.54173928 45.771587,9.22658932 45.0418304,9.93038696 C44.5533,9.46253511 44.056213,9.00383127 43.5505696,8.55427545 C35.4231,1.34458489 27.2764957,-1.69325944 22.3848783,1.13566615 C17.6944304,3.84840414 16.3051043,11.903856 18.2795478,21.9835991 C18.4759826,22.9818012 18.6977217,23.9745171 18.9447652,24.9617468 C17.7920609,25.2888469 16.6788,25.6374488 15.6137087,26.0083343 C6.08533043,29.3271477 0,34.5290056 0,39.9242228 C0,45.4969271 6.53223913,51.0863636 16.4572826,54.4750382 C17.2620652,54.7485403 18.0732783,55.001896 18.8909217,55.2351052 C18.6253826,56.2984641 18.389713,57.3685211 18.183913,58.4452763 C16.3015043,68.349917 17.7716739,76.2143552 22.4497957,78.9104 C27.2816609,81.6938983 35.3912087,78.8327982 43.2880435,71.9365249 C43.9122,71.391371 44.5382087,70.8148898 45.1660696,70.2070811 C45.9562435,70.9687641 46.7671957,71.707994 47.5989261,72.4247708 C55.2480261,79.0006682 62.802313,81.6561334 67.4764826,78.9529343 C72.3039652,76.1609917 73.8725087,67.7124099 71.835613,57.4332479 C71.6802652,56.6481346 71.5003696,55.8469536 71.2959261,55.0297049 C71.8655087,54.8617829 72.4234043,54.6877491 72.969613,54.5076036 C83.2873304,51.092775 90,45.5713622 90,39.9242619 C90,34.5094977 83.7187043,29.2726506 73.9983913,25.9295597 Z M49.8067826,10.7737244 C56.4513652,4.99636261 62.6613652,2.71549689 65.4909261,4.34583717 L65.4909261,4.34583717 C68.5045174,6.08243516 69.6767478,13.0849271 67.783187,22.2681649 C67.6590652,22.8663824 67.5241696,23.4622283 67.3785,24.0557024 C63.4136316,23.1579458 59.3936179,22.5234426 55.3448348,22.1563558 C53.0252485,18.8270903 50.4835962,15.6578813 47.7371739,12.6702953 C48.4112087,12.021073 49.1010783,11.3888827 49.8067826,10.7737244 Z M26.5739087,44.5331408 C27.3878217,46.1038105 28.2383478,47.6547116 29.125487,49.1858442 C30.0304957,50.7472876 30.9723652,52.2865127 31.9510957,53.8035192 C29.1653082,53.50152 26.3968773,53.056826 23.6567348,52.4711931 C24.4513174,49.9076381 25.4303609,47.2431031 26.5739087,44.5331408 Z M26.5695652,35.4991642 C25.4499261,32.8461229 24.492013,30.2376488 23.7097174,27.7187001 C26.277613,27.1444863 29.0158043,26.6753183 31.8690391,26.3191322 C30.9139696,27.8073134 29.9942739,29.3173482 29.1099522,30.8492365 C28.2270391,32.3791441 27.3802435,33.92912 26.5695652,35.4991642 Z M28.6132304,40.016563 C29.7979043,37.5531931 31.0739478,35.1369185 32.4414,32.7677393 L32.4414,32.7685211 C33.8075478,30.4005408 35.2621696,28.0869273 36.8052652,25.8276806 C39.481787,25.6255251 42.2262391,25.5196583 45.0004304,25.5196583 C47.786987,25.5196583 50.5349217,25.626307 53.2107391,25.8300653 C54.7371913,28.0841516 56.1826435,30.3899333 57.5470957,32.7474103 C58.9183565,35.1096048 60.2116565,37.5144769 61.4269957,39.9620268 C60.2248304,42.4332155 58.9357696,44.8593027 57.559813,47.2402883 L57.5594217,47.2402883 C56.1960913,49.6064182 54.7568739,51.9263911 53.2417696,54.2002068 C50.5715087,54.3908295 47.8120304,54.4891121 45,54.4891121 C42.199513,54.4891121 39.4750565,54.4019714 36.8514391,54.2320685 C35.2978304,51.9647424 33.8316652,49.6411859 32.4529435,47.2613991 C31.0817087,44.8958687 29.8018043,42.4809233 28.6132304,40.016563 L28.6132304,40.016563 Z M60.8901261,49.159182 C61.7953435,47.5906755 62.6653435,46.002635 63.5001261,44.3950605 L63.5001261,44.3950605 C64.6439403,46.9776122 65.6527508,49.6177628 66.5224826,52.3048478 C63.7507998,52.9271347 60.9484791,53.4043805 58.1269696,53.7346355 C59.0783087,52.2279497 59.9993478,50.7027986 60.890087,49.159182 L60.8901261,49.159182 Z M63.4636174,35.5019399 C62.631887,33.9251455 61.7688913,32.3655003 60.8746304,30.8230044 L60.8746304,30.8230044 C59.9947957,29.3046426 59.0825348,27.8057496 58.1378478,26.3263255 C61.0096304,26.6884539 63.7608913,27.1699366 66.3441652,27.7592798 C65.5148749,30.38691 64.5534579,32.9710795 63.4635783,35.5019399 L63.4636174,35.5019399 Z M45.0430435,15.4172406 C46.9150172,17.456011 48.6827048,19.5879608 50.3393478,21.8049391 C46.7956174,21.6376426 43.2498783,21.6368476 39.7021304,21.8025544 C41.4508696,19.4988968 43.2418696,17.3587698 45.0430435,15.4172406 Z M24.311113,4.46003097 C27.3223174,2.71866351 33.9800478,5.20176289 40.9974261,11.4265955 C41.4459,11.8245341 41.8964087,12.2411597 42.3477,12.6721328 C39.5853738,15.6591378 37.0242186,18.8257507 34.6810696,22.1511563 C30.6417253,22.5131119 26.6300799,23.136011 22.671313,24.0159438 C22.4417478,23.0978063 22.2355565,22.174326 22.0527391,21.2455029 L22.0527391,21.2458938 C20.3610913,12.6093868 21.4843304,6.09490617 24.311113,4.46003097 Z M19.9225565,51.5352418 C19.1764696,51.3218663 18.435887,51.09026 17.7008087,50.8404228 C13.8894329,49.6423514 10.3312314,47.7538786 7.20391304,45.2693213 C5.39291594,44.0279818 4.17691555,42.0931665 3.84460435,39.9242228 C3.84460435,36.6504066 8.73062609,32.4740255 16.8796174,29.6355218 C17.9024348,29.2808082 18.9349826,28.9562231 19.9772609,28.6617666 C21.1872524,32.5395645 22.6526242,36.3331663 24.3637826,40.0177358 C22.6311399,43.755012 21.1475011,47.6025575 19.9225565,51.5352418 L19.9225565,51.5352418 Z M40.7580261,69.0441887 C37.8151665,71.7443869 34.4000168,73.8804122 30.6832304,75.3455284 L30.6828391,75.3455284 C28.7020648,76.292665 26.4172558,76.3785208 24.3708652,75.5827122 C21.5317174,73.9471724 20.3519348,67.6319152 21.961487,59.1618316 C22.152887,58.1608408 22.3720174,57.1657271 22.6188783,56.1764906 C26.6173402,57.0345848 30.6694729,57.6206348 34.7473565,57.9306027 C37.1107396,61.2749227 39.6914838,64.4605088 42.4729174,67.4667818 C41.9141609,68.0064886 41.3425304,68.5322909 40.7580261,69.0441887 Z M45.1493609,64.7026742 C43.3270957,62.7380796 41.5096435,60.5653089 39.7343739,58.2282259 C41.4574435,58.295989 43.2126522,58.3299487 45,58.3301051 C46.8345913,58.3301051 48.6455609,58.2899164 50.4329087,58.209539 C48.7839209,60.4626562 47.0204249,62.6298515 45.1493609,64.702596 L45.1493609,64.7026742 Z M68.4965739,70.0468345 C68.3287154,72.2343199 67.2621312,74.2548431 65.5500522,75.6286868 C62.7136826,77.2689961 56.6478783,75.1368442 50.1068739,69.5131613 C49.3568739,68.8684999 48.6024783,68.1813955 47.843687,67.4518479 C50.5711754,64.4351297 53.0915656,61.2377738 55.3876435,57.8816179 C59.4890524,57.5359124 63.5618006,56.9087443 67.5770478,56.0045549 C67.7602826,56.744736 67.9226609,57.4697748 68.0641826,58.1796711 L68.0641826,58.1796711 C68.9359943,62.0753943 69.082567,66.098172 68.4965739,70.0469127 L68.4965739,70.0468345 Z M71.7607174,50.8618463 L71.7603261,50.8618463 C71.2684174,51.024595 70.7633609,51.1817922 70.2487565,51.334181 C68.990234,47.4382216 67.4675623,43.6324277 65.691313,39.9432225 C67.4003687,36.3033618 68.8636989,32.5533153 70.0714957,28.7182184 C70.992,28.98484 71.8857783,29.2655355 72.7469217,29.5618295 C81.0755217,32.4257834 86.1555522,36.6610402 86.1555522,39.9241446 C86.1555522,43.4002335 80.6688783,47.9128237 71.7607174,50.8619245 L71.7607174,50.8618463 Z" id="Shape"></path>
                <path d="M45,31.8950422 C48.2506354,31.8950422 51.1812326,33.8512288 52.4252334,36.8516188 C53.6692343,39.8520087 52.9816485,43.3056339 50.6831022,45.6020445 C48.3845559,47.8984551 44.9277188,48.5854021 41.9245384,47.3425571 C38.9213581,46.0997121 36.9633522,43.1718378 36.9633522,39.9242228 C36.9633522,37.7947517 37.810068,35.7524982 39.3172318,34.2467347 C40.8243957,32.7409713 42.8685485,31.8950422 45,31.8950422" id="Path"></path>
            </g>
        </g>
    </g>
</svg>