<svg width="90" height="90" viewBox="0 0 90 90" fill="none" xmlns="http://www.w3.org/2000/svg">
<g clip-path="url(#clip0_3_11)">
<path d="M62.3605 62.605C65.6817 62.2443 68.2014 59.2406 68.0868 55.6358C67.9725 52.0313 65.109 49.1474 61.6732 49.1474H61.4443C57.8935 49.2677 55.145 52.3916 55.2596 56.1163C55.3743 57.9188 56.0612 59.4807 57.092 60.5621C53.1981 68.6128 47.2426 74.5003 38.3094 79.4267C32.2393 82.7911 25.9404 83.9928 19.6414 83.1518C14.4875 82.4308 10.479 80.0279 7.95902 76.0623C4.29433 70.1748 3.95086 63.8063 7.0432 57.4382C9.21937 52.8722 12.6548 49.5078 14.831 47.8256C14.3729 46.2636 13.6856 43.6202 13.3421 41.6979C-3.26461 54.3143 -1.54653 71.3764 3.49277 79.4267C7.27207 85.4348 14.9456 89.1596 23.4207 89.1596C25.7112 89.1596 28.0016 88.9191 30.2924 88.3187C44.9522 85.3146 56.0616 76.1825 62.3605 62.605ZM82.5177 47.7057C73.8134 37.0117 60.9862 31.1241 46.3264 31.1241H44.4941C43.4633 28.9613 41.2871 27.5192 38.8821 27.5192H38.6529C35.1028 27.6395 32.3543 30.7634 32.4686 34.4885C32.5832 38.093 35.4463 40.9769 38.8821 40.9769H39.111C41.6306 40.8566 43.8068 39.1744 44.723 36.8914H46.7845C55.4889 36.8914 63.7348 39.5348 71.1794 44.7016C76.9057 48.6668 81.0288 53.8337 83.3193 60.0816C85.2662 65.1282 85.1516 70.0545 83.09 74.2602C79.8834 80.6283 74.5007 84.113 67.3998 84.113C62.8186 84.113 58.4666 82.6709 56.1758 81.5895C54.9162 82.7911 52.6254 84.7134 51.0219 85.9154C55.9469 88.3183 60.9862 89.6402 65.7963 89.6402C76.7911 89.6402 84.9227 83.2717 88.0151 76.9036C91.3363 69.9343 91.1071 57.9188 82.5177 47.7057ZM24.3369 64.6472C24.4515 68.2521 27.3146 71.1356 30.7505 71.1356H30.9797C34.5301 71.0157 37.2786 67.8914 37.164 64.1666C37.0498 60.5618 34.1863 57.6783 30.7505 57.6783H30.5216C30.2924 57.6783 29.9486 57.6783 29.72 57.7982C25.0242 49.6276 23.0773 40.7364 23.7646 31.1238C24.2223 23.9144 26.5131 17.6661 30.5216 12.4993C33.8428 8.05348 40.2564 5.8907 44.6087 5.77083C56.7485 5.53036 61.9021 21.3909 62.2459 27.7593C63.7348 28.1197 66.2544 28.961 67.9725 29.5618C66.5979 10.0968 55.145 0.00354004 44.1506 0.00354004C33.8428 0.00354004 24.3369 7.81375 20.5573 19.3487C15.2891 34.7286 18.7249 49.5078 25.1385 61.1629C24.5661 62.0039 24.2223 63.3254 24.3369 64.6472Z" fill="white"/>
</g>
<defs>
<clipPath id="clip0_3_11">
<rect width="90" height="90" fill="white"/>
</clipPath>
</defs>
</svg>
