<svg width="84" height="62" viewBox="0 0 84 62" fill="none" xmlns="http://www.w3.org/2000/svg">
<g id="sass.a1d6b081c77a69df75ccaff0716678f6" opacity="0.2">
<path id="Shape" fill-rule="evenodd" clip-rule="evenodd" d="M72.3306 35.6414C69.4001 35.6565 66.8532 36.3511 64.7205 37.3779C64.5953 37.1338 64.47 36.894 64.3474 36.6592C63.704 35.427 63.1334 34.3342 63.0174 33.4971C62.9911 33.2978 62.9639 33.1118 62.9378 32.9333L62.9378 32.9329L62.9377 32.9324C62.8116 32.0706 62.7115 31.3861 62.864 30.2354C62.9887 29.2947 63.4088 28.0839 63.6623 27.3533L63.6624 27.3531L63.6624 27.353L63.6625 27.3528C63.7833 27.0047 63.8662 26.7657 63.8613 26.7169C63.8459 26.5659 63.6772 25.8562 61.9894 25.8411C60.3017 25.826 58.8441 26.1582 58.6754 26.5961C58.5066 27.034 58.1844 28.0307 57.9696 29.0575C57.6781 30.5676 54.5942 35.9585 52.8297 38.7823C52.262 37.68 51.7711 36.7135 51.6637 35.9434C51.6373 35.7437 51.6101 35.5574 51.5839 35.3787C51.4579 34.5169 51.3577 33.8324 51.5102 32.6817C51.6349 31.741 52.055 30.5302 52.3086 29.7996L52.3086 29.7994C52.4295 29.4511 52.5125 29.212 52.5075 29.1632C52.4922 29.0122 52.3234 28.3025 50.6357 28.2874C48.948 28.2723 47.4904 28.6045 47.3216 29.0424C47.2488 29.2314 47.1731 29.53 47.0822 29.8886C46.9625 30.3609 46.8164 30.9372 46.6158 31.5038C46.2629 32.5005 42.1664 41.5004 41.0924 43.8259C40.54 45.0188 40.0644 45.9702 39.7269 46.6195C39.7269 46.6195 39.7115 46.6648 39.6655 46.7403C39.374 47.299 39.2052 47.601 39.2052 47.601V47.6161C38.9751 48.0239 38.7296 48.4014 38.6068 48.4014C38.5148 48.4014 38.346 47.3141 38.6375 45.8343C39.0469 43.7491 39.8318 40.8911 40.3045 39.17C40.5404 38.3111 40.6986 37.7353 40.6935 37.68C40.6935 37.6752 40.6942 37.6684 40.6955 37.6597C40.6965 37.6524 40.6979 37.6439 40.6995 37.6342L40.6995 37.6339L40.6996 37.6338C40.7327 37.4302 40.8514 36.7015 39.7422 36.3058C38.785 35.9555 38.3185 36.3492 38.1152 36.5208C38.0643 36.5637 38.0299 36.5927 38.0085 36.5927C37.9011 36.5927 37.8243 36.8494 37.8243 36.8494C37.8243 36.8494 39.1592 31.383 35.2774 31.383C32.8532 31.383 29.5085 33.9954 27.8514 36.3511C26.8081 36.9098 24.5834 38.1028 22.2052 39.3863C21.4247 39.816 20.6213 40.2457 19.8541 40.656L19.4895 40.8511C19.4589 40.8209 19.4283 40.787 19.3976 40.7531L19.3975 40.7529L19.3974 40.7529C19.3668 40.7189 19.3361 40.685 19.3054 40.6548C17.8546 39.1288 16.0228 37.7413 14.1949 36.3568C10.1077 33.261 6.04018 30.1801 6.29462 25.5995C6.43271 23.1834 7.27657 16.8411 22.9724 9.13984C35.8911 2.8731 46.1709 4.60966 47.9507 8.46031C50.4976 13.9569 42.4426 24.1649 29.0942 25.6448C24.0004 26.2035 21.3307 24.2706 20.6556 23.5458C19.9498 22.7908 19.8424 22.7455 19.5816 22.8965C19.1603 23.1186 19.4177 23.7763 19.5725 24.1719L19.5816 24.1951C19.9805 25.222 21.6222 27.034 24.3993 27.925C26.8541 28.7102 32.8225 29.1481 40.0491 26.3998C48.1348 23.3193 54.4561 14.7573 52.5996 7.58448C50.7431 0.305995 38.4687 -2.095 26.8541 1.96706C19.9498 4.38315 12.4625 8.1885 7.07711 13.1415C0.679112 19.0307 -0.333522 24.1498 0.0807374 26.2941C1.18826 31.9578 7.37685 36.1496 12.2286 39.436C13.8965 40.5657 15.4065 41.5885 16.4977 42.5272C16.3179 42.6283 16.1489 42.7189 15.9996 42.7988L15.9991 42.7991L15.9146 42.8444C13.782 43.8863 5.65022 48.0692 3.62495 52.4936C1.32351 57.507 3.99318 61.101 5.75762 61.5842C11.235 63.0792 16.8659 60.3912 19.8885 55.9517C22.911 51.5121 22.5428 45.7437 21.1466 43.1011C21.1312 43.0709 21.1159 43.0407 21.0852 43.0105C21.3614 42.8519 21.6414 42.6896 21.9214 42.5272C22.2014 42.3649 22.4814 42.2026 22.7576 42.044C23.8469 41.4098 24.9209 40.8209 25.8415 40.3377C25.3199 41.742 24.9363 43.4182 24.7522 45.8343C24.522 48.6732 25.7034 52.3577 27.2531 53.8074C27.9435 54.4416 28.7567 54.4567 29.2783 54.4567C31.0888 54.4567 31.902 52.9769 32.8072 51.2252C33.9119 49.0809 34.9092 46.5893 34.9092 46.5893C34.9092 46.5893 33.6664 53.3242 37.0418 53.3242C38.2693 53.3242 39.5121 51.7537 40.0644 50.9534V50.9685C40.0644 50.9685 40.0951 50.9232 40.1565 50.8175C40.2792 50.6212 40.3559 50.5004 40.3559 50.5004V50.4702C40.8469 49.6245 41.9516 47.7068 43.5933 44.5205C45.7106 40.4132 47.7512 35.279 47.7512 35.279C47.7512 35.279 47.9353 36.5323 48.5644 38.6162C48.83 39.4985 49.3032 40.4436 49.7766 41.3892L49.7766 41.3893L49.7767 41.3895L49.7768 41.3897C49.9596 41.7549 50.1425 42.1202 50.3135 42.4819C49.8225 43.1615 49.5156 43.539 49.5156 43.539L49.531 43.5541L49.4444 43.6656L49.4443 43.6658C49.0699 44.1479 48.6682 44.6654 48.2268 45.1698C47.9247 45.5245 47.612 45.8886 47.3008 46.2509L47.3007 46.251C45.8897 47.8938 44.51 49.5003 44.2837 50.0322C43.9615 50.8024 44.0382 51.3611 44.6519 51.8141C45.0969 52.1463 45.8947 52.1916 46.7079 52.1463C48.2115 52.0406 49.2702 51.6782 49.7918 51.4517C50.605 51.1648 51.5563 50.7269 52.4461 50.0775C54.0878 48.8846 55.0851 47.1782 54.9931 44.9282C54.947 43.69 54.5328 42.4517 54.0265 41.289C54.1032 41.1833 54.1761 41.0776 54.2489 40.9719C54.3218 40.8662 54.3947 40.7605 54.4714 40.6548C57.0644 36.9249 59.0743 32.8327 59.0743 32.8327C59.0743 32.8327 59.2584 34.086 59.8875 36.1699C60.1385 37.0347 60.6052 37.9601 61.0691 38.8799C61.1722 39.0845 61.2753 39.2888 61.3757 39.492C58.9362 41.44 57.4326 43.7051 56.8956 45.185C55.929 47.9333 56.6808 49.1715 58.1077 49.4584C58.7521 49.5943 59.6727 49.2923 60.3478 49.0054C61.207 48.7336 62.2196 48.2655 63.1862 47.5708C64.8279 46.3779 66.4082 44.7168 66.3162 42.4668C66.2701 41.44 65.9939 40.4283 65.6104 39.4467C67.6817 38.6011 70.3513 38.133 73.7575 38.5256C81.0607 39.3712 82.5029 43.8561 82.2268 45.7437C81.9506 47.6312 80.4163 48.6581 79.91 48.9752C79.4037 49.2923 79.2349 49.398 79.2809 49.6245C79.3423 49.9567 79.5878 49.9416 80.0174 49.8812C80.6158 49.7755 83.8531 48.3561 83.9912 44.8829C84.2213 40.4434 79.9253 35.5961 72.3306 35.6414ZM15.9914 54.3359C13.5672 56.9332 10.1917 57.9147 8.73415 57.0842C7.16917 56.1933 7.78289 52.3577 10.7594 49.6094C12.5699 47.9333 14.902 46.3779 16.4516 45.4266C16.5986 45.3385 16.7749 45.2347 16.9759 45.1164C17.2577 44.9505 17.5882 44.7559 17.9552 44.5356C18.0626 44.4752 18.124 44.445 18.124 44.445L18.4922 44.2185C19.5816 48.1447 18.5383 51.6027 15.9914 54.3359ZM33.1099 43.8509C33.3081 43.3426 33.4863 42.8855 33.6357 42.5272C34.1574 41.2588 36.2133 35.6414 35.7684 34.8712C35.4155 34.2823 33.9579 34.7655 32.6384 36.2152C31.8253 37.1212 30.429 39.4467 29.7693 41.3947C28.4652 45.2756 29.0328 49.2017 29.9534 49.4433C30.8373 49.6794 32.1887 46.2134 33.1099 43.8509ZM48.1962 49.3829C47.8433 49.5641 47.5057 49.6849 47.3523 49.5943C47.2449 49.5339 47.5057 49.2923 47.5057 49.2923C47.5057 49.2923 49.3315 47.3594 50.0527 46.4836L50.1854 46.3191L50.1858 46.3187C50.5705 45.8423 51.0127 45.2947 51.4795 44.6866V44.8829C51.4795 47.1933 49.2088 48.7487 48.1962 49.3829ZM60.0869 44.1883C59.2124 46.0759 59.1663 46.6799 59.4272 46.8611C60.7006 46.4081 62.818 45.3209 62.8333 42.4064C62.8486 41.9685 62.7412 41.5004 62.5878 41.0172C61.2223 42.2101 60.4245 43.4484 60.0869 44.1883Z" fill="white"/>
</g>
</svg>
