<?xml version="1.0" encoding="UTF-8"?>
<svg width="105px" height="78px" viewBox="0 0 105 78" version="1.1" xmlns="http://www.w3.org/2000/svg" xmlns:xlink="http://www.w3.org/1999/xlink">
    <title>EB3E56FC-993A-42F0-B800-6175EAA84734</title>
    <g id="Page-1" stroke="none" stroke-width="1" fill="none" fill-rule="evenodd">
        <g id="Desktop-HD" transform="translate(-729.000000, -480.000000)" fill="#FFFFFF" fill-rule="nonzero">
            <g id="sass.a1d6b081c77a69df75ccaff0716678f6" transform="translate(729.000000, 480.000000)">
                <path d="M90.4132235,44.8391526 C86.7500998,44.8581501 83.5664425,45.7320359 80.900609,47.0238671 C79.9224975,45.1051178 78.9443859,43.3953412 78.771778,42.1415051 C78.5799914,40.6786962 78.3498475,39.7858129 78.5799914,38.0380412 C78.8101353,36.2902696 79.8457828,33.8015948 79.8266042,33.6116196 C79.8074255,33.4216444 79.5964603,32.5287611 77.4868079,32.5097636 C75.3771555,32.4907661 73.5551829,32.9087115 73.3442177,33.4596395 C73.1332524,34.0105675 72.7305006,35.2644036 72.4619994,36.5562349 C72.0976049,38.4559866 68.2426946,45.2381004 66.0371489,48.7906362 C65.3275385,47.4038175 64.7138215,46.1879763 64.5795709,45.2191029 C64.3877843,43.7562941 64.1576404,42.8634107 64.3877843,41.1156391 C64.6179282,39.3678675 65.6535757,36.8791927 65.6343971,36.6892175 C65.6152184,36.4992423 65.4042532,35.606359 63.2946008,35.5873614 C61.1849484,35.5683639 59.3629758,35.9863093 59.1520106,36.5372373 C58.9410453,37.0881653 58.7109014,38.3799966 58.2697923,39.6338327 C57.8286832,40.8876689 52.7079814,52.2101894 51.3654753,55.1358072 C50.6750436,56.6366111 50.0805052,57.8334547 49.6585747,58.6503479 C49.6585747,58.6503479 49.6585747,58.6503479 49.6585747,58.6503479 C49.6585747,58.6503479 49.6393961,58.7073405 49.5818601,58.8023281 C49.2174656,59.5052362 49.0065004,59.8851866 49.0065004,59.8851866 C49.0065004,59.8851866 49.0065004,59.8851866 49.0065004,59.9041841 C48.7188205,60.4171171 48.411962,60.892055 48.2585327,60.892055 C48.1434607,60.892055 47.9324955,59.5242337 48.29689,57.662477 C49.0640363,53.7299909 50.8860089,47.6127902 50.8668302,47.4038175 C50.8668302,47.2898324 51.2120461,46.2259714 49.6777534,45.6750433 C48.1818181,45.1241153 47.6448156,46.0359962 47.510565,46.0359962 C47.3763144,46.0359962 47.2804211,46.358954 47.2804211,46.358954 C47.2804211,46.358954 48.9489644,39.4818526 44.0967638,39.4818526 C41.0665358,39.4818526 36.8855883,42.7684231 34.8142932,45.7320359 C33.5101445,46.4349441 30.729239,47.935748 27.756547,49.550537 C26.6250062,50.177455 25.455108,50.8043731 24.3619245,51.3932962 C24.2852099,51.3173061 24.2084952,51.2223185 24.1317806,51.1463284 C18.2631112,44.9341402 7.40799059,40.5457136 7.86827839,32.2058033 C8.04088632,29.1662005 9.09571252,21.187243 28.7154799,11.498509 C44.8639102,3.61453917 57.7136112,5.7992537 59.9383356,10.6436207 C63.1219928,17.5587172 53.0531972,30.4010391 36.3677646,32.2627959 C30.00045,32.965704 26.6633635,30.5340217 25.8195025,29.6221409 C24.9372842,28.672265 24.8030336,28.6152725 24.4769964,28.8052476 C23.939994,29.0902104 24.2852099,29.9450987 24.4769964,30.4390342 C24.9756416,31.7308654 27.027758,34.0105675 30.4990951,35.131421 C33.5676805,36.1192919 41.0281785,36.67022 50.0613266,33.2126717 C60.1684795,29.3371781 68.0700867,18.5655856 65.749469,9.54176469 C63.4288514,0.384961157 48.0859248,-2.63564416 33.5676805,2.4746881 C24.9372842,5.51429093 15.578099,10.3016654 8.84638996,16.5328512 C0.848889469,23.9418831 -0.416901976,30.3820416 0.100921797,33.0796891 C1.96125165,42.654438 15.2904191,48.8856238 20.6220861,53.5020206 C20.3535849,53.6540008 20.1042624,53.7869834 19.8932971,53.9009685 C17.2274636,55.2117972 7.06277474,60.4741096 4.53119185,66.0403823 C1.65439312,72.3475582 4.99147965,76.8689674 7.19702535,77.476888 C14.0438064,79.3576422 21.0823739,75.9760841 24.8605696,70.3908139 C28.6387653,64.8055437 28.1784775,57.5484919 26.4332196,54.2239263 C26.4140409,54.1859313 26.3948623,54.1479362 26.356505,54.1099412 C27.0469367,53.7109933 27.756547,53.2930479 28.4469787,52.8941001 C29.8086634,52.0962043 31.1511695,51.3553011 32.301889,50.7473806 C31.6498146,52.5141497 31.1703482,54.6228742 30.9402043,57.662477 C30.6525244,61.2340103 32.1292811,65.8694047 34.0663256,67.6931664 C34.9293652,68.4910621 35.9458341,68.5100596 36.5979085,68.5100596 C38.8609901,68.5100596 39.877459,66.6483029 41.0089999,64.4445908 C42.3898633,61.7469433 43.636476,58.6123529 43.636476,58.6123529 C43.636476,58.6123529 42.0830047,67.0852458 46.3023095,67.0852458 C47.8366022,67.0852458 49.3900735,65.109504 50.0805052,64.1026355 C50.0805052,64.121633 50.0805052,64.121633 50.0805052,64.121633 C50.0805052,64.121633 50.1188625,64.0646405 50.1955772,63.9316579 C50.3490064,63.6846901 50.4448997,63.53271 50.4448997,63.53271 C50.4448997,63.53271 50.4448997,63.5137125 50.4448997,63.4947149 C51.0586168,62.430854 52.4394802,60.0181692 54.4915966,56.009693 C57.1382515,50.8423682 59.689013,44.3832121 59.689013,44.3832121 C59.689013,44.3832121 59.9191569,45.9600061 60.7054819,48.5816636 C61.1657697,50.1204625 62.1247026,51.8112416 62.8918489,53.4450281 C62.2781319,54.2999164 61.8945587,54.7748543 61.8945587,54.7748543 C61.8945587,54.7748543 61.8945587,54.7748543 61.9137374,54.7938518 C61.4150922,55.4397674 60.8780898,56.1426756 60.2835514,56.8265862 C58.1930777,59.2962635 55.6998521,62.1268937 55.3546362,62.9437869 C54.9518844,63.9126603 55.0477777,64.6155685 55.814924,65.185494 C56.3711051,65.6034394 57.3683954,65.660432 58.3848642,65.6034394 C60.2643728,65.4704568 61.5877002,65.0145164 62.2397746,64.7295536 C63.2562434,64.3686008 64.4453203,63.8176727 65.5576824,63.0007795 C67.6097989,61.4999756 68.8564117,59.3532561 68.7413397,56.522626 C68.6838037,54.9648295 68.16598,53.407033 67.5330842,51.9442242 C67.7248708,51.6782589 67.8974787,51.4122937 68.0892653,51.1463284 C71.3304586,46.4539416 73.8428628,41.3056143 73.8428628,41.3056143 C73.8428628,41.3056143 74.0730067,42.8824082 74.8593317,45.5040657 C75.2429049,46.8338919 76.0292298,48.2777033 76.7196615,49.6835196 C73.6702549,52.1341994 71.7907464,54.983827 71.1194933,56.8455838 C69.9112379,60.303132 70.8509921,61.8609284 72.6346073,62.2218813 C73.440111,62.3928589 74.5908305,62.0129086 75.4346914,61.6519557 C76.5086963,61.3100004 77.7744877,60.7210774 78.9827432,59.8471915 C81.0348596,58.3463877 83.0102614,56.2566607 82.8951895,53.4260306 C82.8376535,52.1341994 82.4924377,50.8613657 82.0129712,49.626527 C84.6020901,48.562666 87.9391766,47.973743 92.1968388,48.4676784 C101.32588,49.5315394 103.128674,55.1738022 102.783458,57.5484919 C102.438242,59.9231816 100.520376,61.2150128 99.8874807,61.6139607 C99.254585,62.0129086 99.0436198,62.1458912 99.1011557,62.430854 C99.1778704,62.8487993 99.4847289,62.8298018 100.021731,62.7538118 C100.769699,62.6208291 104.816396,60.8350625 104.989004,56.4656334 C105.276684,50.8803632 99.9066594,44.78216 90.4132235,44.8391526 Z M19.9891904,68.3580795 C16.9589624,71.6256525 12.7396576,72.8604912 10.9176851,71.8156277 C8.96146191,70.6947742 9.72860824,65.8694047 13.4492679,62.4118564 C15.7123496,60.303132 18.6275057,58.3463877 20.5645502,57.149544 C21.0056593,56.8835788 21.6577337,56.5036284 22.4440587,56.0286905 C22.5783093,55.9527004 22.6550239,55.9147054 22.6550239,55.9147054 L22.6550239,55.9147054 C22.8084532,55.8197178 22.9618824,55.7247302 23.1153117,55.6297426 C24.4769964,60.5690972 23.1728477,64.9195288 19.9891904,68.3580795 Z M42.0446474,53.5020206 C40.9898212,56.047688 38.7842755,62.5638366 37.4417694,62.2028837 C36.2910499,61.8989235 35.5814396,56.9595689 37.2116255,52.0772068 C38.0363078,49.626527 39.7815657,46.7009093 40.7980346,45.5610582 C42.4473992,43.7372965 44.2693718,43.129376 44.7104809,43.8702792 C45.266662,44.8391526 42.6967218,51.9062292 42.0446474,53.5020206 Z M60.2451941,62.1268937 C59.804085,62.3548639 59.3821545,62.506844 59.1903679,62.3928589 C59.0561173,62.3168688 59.3821545,62.0129086 59.3821545,62.0129086 C59.3821545,62.0129086 61.6644148,59.5812263 62.5658117,58.4793703 C63.0836355,57.8334547 63.6973526,57.073554 64.349427,56.2186657 C64.349427,56.2946557 64.349427,56.3896433 64.349427,56.4656334 C64.349427,59.3722536 61.5109855,61.3289979 60.2451941,62.1268937 Z M74.2839719,58.9543082 C73.9579348,58.726338 74.0154707,57.9664373 75.1086542,55.5917476 C75.5305847,54.6608692 76.527875,53.1030728 78.2347755,51.6022689 C78.4265621,52.2101894 78.5608127,52.7991125 78.5416341,53.3500405 C78.5224554,57.0165614 75.8758006,58.3843827 74.2839719,58.9543082 Z" id="Shape"></path>
            </g>
        </g>
    </g>
</svg>