<svg width="90" height="90" viewBox="0 0 90 90" fill="none" xmlns="http://www.w3.org/2000/svg">
<g clip-path="url(#clip0_1_2)">
<path d="M0 45V0H90V90H0" fill="white"/>
<path d="M19.7325 45.1575V48.825H31.4325V82.125H39.735V48.825H51.435V45.225C51.435 43.2 51.435 41.5575 51.345 41.5125C51.345 41.445 44.2125 41.4225 35.55 41.4225L19.8 41.49V45.18L19.7325 45.1575ZM72.315 41.4C74.61 41.94 76.3651 42.975 77.9401 44.6175C78.7726 45.5175 80.01 47.0925 80.1 47.4975C80.1 47.6325 76.2076 50.265 73.8451 51.7275C73.7551 51.795 73.395 51.4125 73.035 50.8275C71.865 49.1625 70.6725 48.4425 68.805 48.3075C66.105 48.1275 64.305 49.545 64.305 51.9075C64.305 52.6275 64.44 53.0325 64.71 53.6175C65.3175 54.855 66.4425 55.5975 69.93 57.1275C76.365 59.895 79.155 61.7175 80.8425 64.3275C82.755 67.2525 83.1825 71.8425 81.9 75.285C80.46 79.0425 76.9501 81.585 71.9326 82.4175C70.3576 82.6875 66.7576 82.6425 65.0701 82.35C61.4701 81.675 58.0275 79.875 55.9125 77.5575C55.08 76.6575 53.4825 74.25 53.5725 74.0925L54.4275 73.5525L57.8025 71.595L60.3451 70.11L60.93 70.8975C61.6725 72.0675 63.3375 73.6425 64.305 74.1825C67.23 75.69 71.145 75.4875 73.08 73.7325C73.9125 72.9675 74.2725 72.1575 74.2725 71.0325C74.2725 69.9975 74.115 69.525 73.5975 68.7375C72.8775 67.7475 71.4375 66.9375 67.3875 65.1375C62.73 63.1575 60.75 61.8975 58.905 59.9625C57.8475 58.7925 56.88 56.97 56.43 55.4625C56.0925 54.1575 55.98 50.9625 56.295 49.68C57.2625 45.18 60.6601 42.03 65.5201 41.13C67.0951 40.815 70.8075 40.95 72.36 41.355L72.315 41.4Z" fill="black"/>
</g>
<defs>
<clipPath id="clip0_1_2">
<rect width="90" height="90" fill="white"/>
</clipPath>
</defs>
</svg>
