<?xml version="1.0" encoding="UTF-8"?>
<svg width="86px" height="97px" viewBox="0 0 86 97" version="1.1" xmlns="http://www.w3.org/2000/svg" xmlns:xlink="http://www.w3.org/1999/xlink">
    <title>CF7FC9BD-E85E-41F8-BF6F-82A5715AFD4C</title>
    <g id="Page-1" stroke="none" stroke-width="1" fill="none" fill-rule="evenodd">
        <g id="Desktop-HD" transform="translate(-873.000000, -467.000000)" fill-rule="nonzero">
            <g id="webpack.0f014977d2905d37d6beed588a732b9e" transform="translate(873.000000, 467.000000)">
                <polygon id="Path" fill="#FFFFFF" points="43.0000871 0 86 24.2471794 86 72.7528206 43.0000871 97 0 72.7528206 0 24.2471794"></polygon>
                <path d="M78.322296,71.0801495 L44.4222452,90.1988338 L44.4222452,75.3115137 L65.5444627,63.7252738 L78.322296,71.0801495 Z M80.6445333,68.9866418 L80.6445333,29.0102088 L68.2445261,36.1547964 L68.2445261,61.8532499 L80.6445333,68.9866418 Z M7.54450723,71.0801495 L41.444471,90.1988338 L41.444471,75.3115137 L20.3111103,63.7252738 L7.54450723,71.0801495 Z M5.22226991,68.9866418 L5.22226991,29.0102088 L17.6222772,36.1547964 L17.6222772,61.8532499 L5.22226991,68.9866418 Z M6.67785784,26.4182758 L41.444471,6.81227509 L41.444471,21.2010832 L19.16675,33.4187948 L18.9889802,33.5184278 L6.67785784,26.4182758 Z M79.1889454,26.4182758 L44.4222452,6.81227509 L44.4222452,21.2010832 L66.7000532,33.4077727 L66.877823,33.5074924 L79.1889454,26.4182758 Z" id="Shape" fill="#FFFFFF"></path>
                <path d="M41.444558,71.9219961 L20.5999644,60.4906734 L20.5999644,37.8606207 L41.444558,49.8569353 L41.444558,71.9219961 Z M44.4222452,71.9219961 L65.2667518,60.5017823 L65.2667518,37.8607074 L44.4222452,49.8569353 L44.4222452,71.9219961 Z M22.0111534,35.2465567 L42.9334016,23.781994 L63.8555628,35.2465567 L42.9332275,47.2870465 L22.0111534,35.2465567 Z" id="Shape" fill="#212529"></path>
            </g>
        </g>
    </g>
</svg>