<svg width="69" height="78" viewBox="0 0 69 78" fill="none" xmlns="http://www.w3.org/2000/svg">
<g id="webpack.0f014977d2905d37d6beed588a732b9e" opacity="0.2">
<path id="Path" d="M34.5001 0L69 19.4977V58.5023L34.5001 78L0 58.5023V19.4977L34.5001 0Z" fill="white"/>
<path id="Shape" fill-rule="evenodd" clip-rule="evenodd" d="M5.3578 21.2436L33.2519 5.47791V17.0483L15.378 26.8728L15.2353 26.953L5.3578 21.2436ZM4.18994 23.3278V55.4738L14.1388 49.7377V29.0729L4.18994 23.3278ZM64.7032 23.3278V55.4738L54.7543 49.7377V29.0729L64.7032 23.3278ZM35.6411 72.531L62.84 57.1572L52.588 51.243L35.6411 60.5598V72.531ZM6.05313 57.1572L33.2519 72.531V60.5598L16.2961 51.243L6.05313 57.1572ZM35.6411 5.47791L63.5353 21.2436L53.6578 26.9442L53.5151 26.864L35.6411 17.0483V5.47791Z" fill="white"/>
<path id="Shape_2" fill-rule="evenodd" clip-rule="evenodd" d="M34.4465 19.1237L17.6601 28.3426L34.4464 38.0246L51.2329 28.3426L34.4465 19.1237ZM33.252 57.8342L16.5278 48.642V30.4446L33.2518 40.0911L33.252 57.8342ZM35.6411 57.8342L52.3651 48.6509V30.4447L35.6411 40.0911V57.8342Z" fill="#212529"/>
</g>
</svg>
